<?xml version="1.0" encoding="UTF-8" standalone="no"?>
<!DOCTYPE svg PUBLIC "-//W3C//DTD SVG 1.1//EN"
 "http://www.w3.org/Graphics/SVG/1.1/DTD/svg11.dtd">
<!-- Generated by graphviz version 9.0.0 (20230911.1827)
 -->
<!-- Title: inheritancede10b8806d Pages: 1 -->
<svg width="158pt" height="131pt"
 viewBox="0.00 0.00 157.90 131.20" xmlns="http://www.w3.org/2000/svg" xmlns:xlink="http://www.w3.org/1999/xlink">
<g id="graph0" class="graph" transform="scale(1 1) rotate(0) translate(4 127.2)">
<title>inheritancede10b8806d</title>
<!-- CustomStyleServices -->
<g id="node1" class="node">
<title>CustomStyleServices</title>
<g id="a_node1"><a xlink:title="TCustomStyleServices is a class that provides access to style functionality.">
<polygon fill="white" stroke="black" stroke-width="0" points="149.9,-123.2 49.7,-123.2 49.7,-104 149.9,-104 149.9,-123.2"/>
<text text-anchor="middle" x="99.8" y="-110.1" font-family="Vera Sans, DejaVu Sans, Liberation Sans, Arial, Helvetica, sans" font-size="10.00">CustomStyleServices</text>
</a>
</g>
</g>
<!-- Object -->
<g id="node2" class="node">
<title>Object</title>
<g id="a_node2"><a xlink:title="TObject is the ultimate ancestor of all objects and components.">
<polygon fill="white" stroke="black" stroke-width="0" points="35.7,-71.2 0,-71.2 0,-52 35.7,-52 35.7,-71.2"/>
<text text-anchor="middle" x="17.85" y="-58.1" font-family="Vera Sans, DejaVu Sans, Liberation Sans, Arial, Helvetica, sans" font-size="10.00">Object</text>
</a>
</g>
</g>
<!-- Object&#45;&gt;CustomStyleServices -->
<g id="edge1" class="edge">
<title>Object&#45;&gt;CustomStyleServices</title>
<path fill="none" stroke="black" d="M35.5,-66.4C46.62,-66.4 58.9,-66.4 58.9,-66.4 58.9,-66.4 58.9,-97.53 58.9,-97.53"/>
<polygon fill="black" stroke="black" points="57.15,-97.53 58.9,-102.53 60.65,-97.53 57.15,-97.53"/>
</g>
<!-- Monitor -->
<g id="node3" class="node">
<title>Monitor</title>
<g id="a_node3"><a xlink:title="TMonitor represents a monitor on which an application runs.">
<polygon fill="white" stroke="black" stroke-width="0" points="119.52,-97.2 80.07,-97.2 80.07,-78 119.52,-78 119.52,-97.2"/>
<text text-anchor="middle" x="99.8" y="-84.1" font-family="Vera Sans, DejaVu Sans, Liberation Sans, Arial, Helvetica, sans" font-size="10.00">Monitor</text>
</a>
</g>
</g>
<!-- Object&#45;&gt;Monitor -->
<g id="edge2" class="edge">
<title>Object&#45;&gt;Monitor</title>
<path fill="none" stroke="black" d="M17.9,-70.99C17.9,-78.43 17.9,-87.6 17.9,-87.6 17.9,-87.6 73.88,-87.6 73.88,-87.6"/>
<polygon fill="black" stroke="black" points="73.88,-89.35 78.88,-87.6 73.88,-85.85 73.88,-89.35"/>
</g>
<!-- Persistent -->
<g id="node4" class="node">
<title>Persistent</title>
<g id="a_node4"><a xlink:title="TPersistent is the ancestor for all objects that have assignment and streaming capabilities.">
<polygon fill="white" stroke="black" stroke-width="0" points="125.52,-71.2 74.07,-71.2 74.07,-52 125.52,-52 125.52,-71.2"/>
<text text-anchor="middle" x="99.8" y="-58.1" font-family="Vera Sans, DejaVu Sans, Liberation Sans, Arial, Helvetica, sans" font-size="10.00">Persistent</text>
</a>
</g>
</g>
<!-- Object&#45;&gt;Persistent -->
<g id="edge3" class="edge">
<title>Object&#45;&gt;Persistent</title>
<path fill="none" stroke="black" d="M35.63,-61.6C35.63,-61.6 67.76,-61.6 67.76,-61.6"/>
<polygon fill="black" stroke="black" points="67.76,-63.35 72.76,-61.6 67.76,-59.85 67.76,-63.35"/>
</g>
<!-- Stream -->
<g id="node5" class="node">
<title>Stream</title>
<g id="a_node5"><a xlink:title="TStream is the base class type for stream objects that can read from or write to various kinds of storage media, such as disk files, dynamic memory, and so on.">
<polygon fill="white" stroke="black" stroke-width="0" points="119.15,-45.2 80.45,-45.2 80.45,-26 119.15,-26 119.15,-45.2"/>
<text text-anchor="middle" x="99.8" y="-32.1" font-family="Vera Sans, DejaVu Sans, Liberation Sans, Arial, Helvetica, sans" font-size="10.00">Stream</text>
</a>
</g>
</g>
<!-- Object&#45;&gt;Stream -->
<g id="edge4" class="edge">
<title>Object&#45;&gt;Stream</title>
<path fill="none" stroke="black" d="M17.9,-52.21C17.9,-44.77 17.9,-35.6 17.9,-35.6 17.9,-35.6 74.29,-35.6 74.29,-35.6"/>
<polygon fill="black" stroke="black" points="74.29,-37.35 79.29,-35.6 74.29,-33.85 74.29,-37.35"/>
</g>
<!-- StyleManager -->
<g id="node6" class="node">
<title>StyleManager</title>
<g id="a_node6"><a xlink:title="Handles styles&#45;related operations.">
<polygon fill="white" stroke="black" stroke-width="0" points="133.4,-19.2 66.2,-19.2 66.2,0 133.4,0 133.4,-19.2"/>
<text text-anchor="middle" x="99.8" y="-6.1" font-family="Vera Sans, DejaVu Sans, Liberation Sans, Arial, Helvetica, sans" font-size="10.00">StyleManager</text>
</a>
</g>
</g>
<!-- Object&#45;&gt;StyleManager -->
<g id="edge5" class="edge">
<title>Object&#45;&gt;StyleManager</title>
<path fill="none" stroke="black" d="M35.51,-56.8C50.95,-56.8 70.9,-56.8 70.9,-56.8 70.9,-56.8 70.9,-25.67 70.9,-25.67"/>
<polygon fill="black" stroke="black" points="72.65,-25.67 70.9,-20.67 69.15,-25.67 72.65,-25.67"/>
</g>
</g>
</svg>
