<?xml version="1.0" encoding="UTF-8" standalone="no"?>
<!DOCTYPE svg PUBLIC "-//W3C//DTD SVG 1.1//EN"
 "http://www.w3.org/Graphics/SVG/1.1/DTD/svg11.dtd">
<!-- Generated by graphviz version 9.0.0 (20230911.1827)
 -->
<!-- Title: inheritance65f7b12991 Pages: 1 -->
<svg width="235pt" height="183pt"
 viewBox="0.00 0.00 234.80 183.20" xmlns="http://www.w3.org/2000/svg" xmlns:xlink="http://www.w3.org/1999/xlink">
<g id="graph0" class="graph" transform="scale(1 1) rotate(0) translate(4 179.2)">
<title>inheritance65f7b12991</title>
<!-- Bitmap -->
<g id="node1" class="node">
<title>Bitmap</title>
<g id="a_node1"><a xlink:title="TBitmap is an encapsulation of a Windows bitmap (HBITMAP), including its palette (HPALETTE).">
<polygon fill="white" stroke="black" stroke-width="0" points="225.3,-175.2 187.35,-175.2 187.35,-156 225.3,-156 225.3,-175.2"/>
<text text-anchor="middle" x="206.32" y="-162.1" font-family="Vera Sans, DejaVu Sans, Liberation Sans, Arial, Helvetica, sans" font-size="10.00">Bitmap</text>
</a>
</g>
</g>
<!-- Graphic -->
<g id="node2" class="node">
<title>Graphic</title>
<g id="a_node2"><a xlink:title="TGraphic is the abstract base class type for objects such as icons, bitmaps, and metafiles that can store and display visual images.">
<polygon fill="white" stroke="black" stroke-width="0" points="163.97,-149.2 123.02,-149.2 123.02,-130 163.97,-130 163.97,-149.2"/>
<text text-anchor="middle" x="143.5" y="-136.1" font-family="Vera Sans, DejaVu Sans, Liberation Sans, Arial, Helvetica, sans" font-size="10.00">Graphic</text>
</a>
</g>
</g>
<!-- Graphic&#45;&gt;Bitmap -->
<g id="edge1" class="edge">
<title>Graphic&#45;&gt;Bitmap</title>
<path fill="none" stroke="black" d="M143.8,-148.99C143.8,-156.43 143.8,-165.6 143.8,-165.6 143.8,-165.6 181.05,-165.6 181.05,-165.6"/>
<polygon fill="black" stroke="black" points="181.05,-167.35 186.05,-165.6 181.05,-163.85 181.05,-167.35"/>
</g>
<!-- Icon -->
<g id="node7" class="node">
<title>Icon</title>
<g id="a_node7"><a xlink:title="TIcon is an encapsulation of a Windows icon.">
<polygon fill="white" stroke="black" stroke-width="0" points="218.92,-149.2 193.72,-149.2 193.72,-130 218.92,-130 218.92,-149.2"/>
<text text-anchor="middle" x="206.32" y="-136.1" font-family="Vera Sans, DejaVu Sans, Liberation Sans, Arial, Helvetica, sans" font-size="10.00">Icon</text>
</a>
</g>
</g>
<!-- Graphic&#45;&gt;Icon -->
<g id="edge6" class="edge">
<title>Graphic&#45;&gt;Icon</title>
<path fill="none" stroke="black" d="M163.72,-142.8C163.72,-142.8 187.31,-142.8 187.31,-142.8"/>
<polygon fill="black" stroke="black" points="187.31,-144.55 192.31,-142.8 187.31,-141.05 187.31,-144.55"/>
</g>
<!-- Metafile -->
<g id="node8" class="node">
<title>Metafile</title>
<g id="a_node8"><a xlink:title="TMetafile is an encapsulation of the Win32 Enhanced metafile.">
<polygon fill="white" stroke="black" stroke-width="0" points="226.8,-123.2 185.85,-123.2 185.85,-104 226.8,-104 226.8,-123.2"/>
<text text-anchor="middle" x="206.32" y="-110.1" font-family="Vera Sans, DejaVu Sans, Liberation Sans, Arial, Helvetica, sans" font-size="10.00">Metafile</text>
</a>
</g>
</g>
<!-- Graphic&#45;&gt;Metafile -->
<g id="edge7" class="edge">
<title>Graphic&#45;&gt;Metafile</title>
<path fill="none" stroke="black" d="M163.77,-136.4C172.09,-136.4 179.8,-136.4 179.8,-136.4 179.8,-136.4 179.8,-113.6 179.8,-113.6 179.8,-113.6 180.42,-113.6 180.42,-113.6"/>
<polygon fill="black" stroke="black" points="179.44,-115.35 184.44,-113.6 179.44,-111.85 179.44,-115.35"/>
</g>
<!-- Canvas -->
<g id="node3" class="node">
<title>Canvas</title>
<g id="a_node3"><a xlink:title="TCanvas provides an abstract drawing space for objects that must render their own images.">
<polygon fill="white" stroke="black" stroke-width="0" points="162.85,-123.2 124.15,-123.2 124.15,-104 162.85,-104 162.85,-123.2"/>
<text text-anchor="middle" x="143.5" y="-110.1" font-family="Vera Sans, DejaVu Sans, Liberation Sans, Arial, Helvetica, sans" font-size="10.00">Canvas</text>
</a>
</g>
</g>
<!-- Persistent -->
<g id="node4" class="node">
<title>Persistent</title>
<g id="a_node4"><a xlink:title="TPersistent is the ancestor for all objects that have assignment and streaming capabilities.">
<polygon fill="white" stroke="black" stroke-width="0" points="101.15,-84.2 49.7,-84.2 49.7,-65 101.15,-65 101.15,-84.2"/>
<text text-anchor="middle" x="75.42" y="-71.1" font-family="Vera Sans, DejaVu Sans, Liberation Sans, Arial, Helvetica, sans" font-size="10.00">Persistent</text>
</a>
</g>
</g>
<!-- Persistent&#45;&gt;Graphic -->
<g id="edge5" class="edge">
<title>Persistent&#45;&gt;Graphic</title>
<path fill="none" stroke="black" d="M62.8,-84.19C62.8,-102.27 62.8,-139.6 62.8,-139.6 62.8,-139.6 116.62,-139.6 116.62,-139.6"/>
<polygon fill="black" stroke="black" points="116.62,-141.35 121.62,-139.6 116.62,-137.85 116.62,-141.35"/>
</g>
<!-- Persistent&#45;&gt;Canvas -->
<g id="edge2" class="edge">
<title>Persistent&#45;&gt;Canvas</title>
<path fill="none" stroke="black" d="M75.8,-84.04C75.8,-95.58 75.8,-113.6 75.8,-113.6 75.8,-113.6 117.77,-113.6 117.77,-113.6"/>
<polygon fill="black" stroke="black" points="117.77,-115.35 122.77,-113.6 117.77,-111.85 117.77,-115.35"/>
</g>
<!-- Collection -->
<g id="node5" class="node">
<title>Collection</title>
<g id="a_node5"><a xlink:title="TCollection is a container for TCollectionItem objects.">
<polygon fill="white" stroke="black" stroke-width="0" points="168.47,-97.2 118.52,-97.2 118.52,-78 168.47,-78 168.47,-97.2"/>
<text text-anchor="middle" x="143.5" y="-84.1" font-family="Vera Sans, DejaVu Sans, Liberation Sans, Arial, Helvetica, sans" font-size="10.00">Collection</text>
</a>
</g>
</g>
<!-- Persistent&#45;&gt;Collection -->
<g id="edge3" class="edge">
<title>Persistent&#45;&gt;Collection</title>
<path fill="none" stroke="black" d="M88.8,-84.15C88.8,-87.62 88.8,-90.7 88.8,-90.7 88.8,-90.7 112.2,-90.7 112.2,-90.7"/>
<polygon fill="black" stroke="black" points="112.2,-92.45 117.2,-90.7 112.2,-88.95 112.2,-92.45"/>
</g>
<!-- Component -->
<g id="node6" class="node">
<title>Component</title>
<g id="a_node6"><a xlink:title="TComponent is the common ancestor of all component classes.">
<polygon fill="white" stroke="black" stroke-width="0" points="171.85,-71.2 115.15,-71.2 115.15,-52 171.85,-52 171.85,-71.2"/>
<text text-anchor="middle" x="143.5" y="-58.1" font-family="Vera Sans, DejaVu Sans, Liberation Sans, Arial, Helvetica, sans" font-size="10.00">Component</text>
</a>
</g>
</g>
<!-- Persistent&#45;&gt;Component -->
<g id="edge4" class="edge">
<title>Persistent&#45;&gt;Component</title>
<path fill="none" stroke="black" d="M88.8,-65.05C88.8,-61.58 88.8,-58.5 88.8,-58.5 88.8,-58.5 108.68,-58.5 108.68,-58.5"/>
<polygon fill="black" stroke="black" points="108.68,-60.25 113.68,-58.5 108.68,-56.75 108.68,-60.25"/>
</g>
<!-- Picture -->
<g id="node10" class="node">
<title>Picture</title>
<g id="a_node10"><a xlink:title="TPicture contains a bitmap, icon, metafile graphic, or user&#45;defined graphic.">
<polygon fill="white" stroke="black" stroke-width="0" points="162.47,-45.2 124.52,-45.2 124.52,-26 162.47,-26 162.47,-45.2"/>
<text text-anchor="middle" x="143.5" y="-32.1" font-family="Vera Sans, DejaVu Sans, Liberation Sans, Arial, Helvetica, sans" font-size="10.00">Picture</text>
</a>
</g>
</g>
<!-- Persistent&#45;&gt;Picture -->
<g id="edge9" class="edge">
<title>Persistent&#45;&gt;Picture</title>
<path fill="none" stroke="black" d="M75.8,-65.16C75.8,-53.62 75.8,-35.6 75.8,-35.6 75.8,-35.6 118.13,-35.6 118.13,-35.6"/>
<polygon fill="black" stroke="black" points="118.13,-37.35 123.13,-35.6 118.13,-33.85 118.13,-37.35"/>
</g>
<!-- Strings -->
<g id="node11" class="node">
<title>Strings</title>
<g id="a_node11"><a xlink:title="TStrings is the base class for objects that represent a list of strings.">
<polygon fill="white" stroke="black" stroke-width="0" points="162.47,-19.2 124.52,-19.2 124.52,0 162.47,0 162.47,-19.2"/>
<text text-anchor="middle" x="143.5" y="-6.1" font-family="Vera Sans, DejaVu Sans, Liberation Sans, Arial, Helvetica, sans" font-size="10.00">Strings</text>
</a>
</g>
</g>
<!-- Persistent&#45;&gt;Strings -->
<g id="edge10" class="edge">
<title>Persistent&#45;&gt;Strings</title>
<path fill="none" stroke="black" d="M62.8,-65.01C62.8,-46.93 62.8,-9.6 62.8,-9.6 62.8,-9.6 118.27,-9.6 118.27,-9.6"/>
<polygon fill="black" stroke="black" points="118.27,-11.35 123.27,-9.6 118.27,-7.85 118.27,-11.35"/>
</g>
<!-- Object -->
<g id="node9" class="node">
<title>Object</title>
<g id="a_node9"><a xlink:title="TObject is the ultimate ancestor of all objects and components.">
<polygon fill="white" stroke="black" stroke-width="0" points="35.7,-84.2 0,-84.2 0,-65 35.7,-65 35.7,-84.2"/>
<text text-anchor="middle" x="17.85" y="-71.1" font-family="Vera Sans, DejaVu Sans, Liberation Sans, Arial, Helvetica, sans" font-size="10.00">Object</text>
</a>
</g>
</g>
<!-- Object&#45;&gt;Persistent -->
<g id="edge8" class="edge">
<title>Object&#45;&gt;Persistent</title>
<path fill="none" stroke="black" d="M35.44,-74.6C35.44,-74.6 43.59,-74.6 43.59,-74.6"/>
<polygon fill="black" stroke="black" points="43.59,-76.35 48.59,-74.6 43.59,-72.85 43.59,-76.35"/>
</g>
</g>
</svg>
