<?xml version="1.0" encoding="UTF-8" standalone="no"?>
<!DOCTYPE svg PUBLIC "-//W3C//DTD SVG 1.1//EN"
 "http://www.w3.org/Graphics/SVG/1.1/DTD/svg11.dtd">
<!-- Generated by graphviz version 9.0.0 (20230911.1827)
 -->
<!-- Title: inheritance40f1b23eb5 Pages: 1 -->
<svg width="773pt" height="678pt"
 viewBox="0.00 0.00 773.00 678.20" xmlns="http://www.w3.org/2000/svg" xmlns:xlink="http://www.w3.org/1999/xlink">
<g id="graph0" class="graph" transform="scale(1 1) rotate(0) translate(4 674.2)">
<title>inheritance40f1b23eb5</title>
<!-- BitBtn -->
<g id="node1" class="node">
<title>BitBtn</title>
<g id="a_node1"><a xlink:title="TBitBtn is a push button control that can include a bitmap on its face.">
<polygon fill="white" stroke="black" stroke-width="0" points="367.83,-552.2 333.63,-552.2 333.63,-533 367.83,-533 367.83,-552.2"/>
<text text-anchor="middle" x="350.73" y="-539.1" font-family="Vera Sans, DejaVu Sans, Liberation Sans, Arial, Helvetica, sans" font-size="10.00">BitBtn</text>
</a>
</g>
</g>
<!-- WinControl -->
<g id="node2" class="node">
<title>WinControl</title>
<g id="a_node2"><a xlink:title="TWinControl is the base class for all controls that are wrappers for Microsoft Windows screen objects.">
<polygon fill="white" stroke="black" stroke-width="0" points="293,-240.2 237.8,-240.2 237.8,-221 293,-221 293,-240.2"/>
<text text-anchor="middle" x="265.4" y="-227.1" font-family="Vera Sans, DejaVu Sans, Liberation Sans, Arial, Helvetica, sans" font-size="10.00">WinControl</text>
</a>
</g>
</g>
<!-- WinControl&#45;&gt;BitBtn -->
<g id="edge1" class="edge">
<title>WinControl&#45;&gt;BitBtn</title>
<path fill="none" stroke="black" d="M244,-239.94C244,-291.85 244,-542.6 244,-542.6 244,-542.6 327.54,-542.6 327.54,-542.6"/>
<polygon fill="black" stroke="black" points="327.54,-544.35 332.54,-542.6 327.54,-540.85 327.54,-544.35"/>
</g>
<!-- Button -->
<g id="node3" class="node">
<title>Button</title>
<g id="a_node3"><a xlink:title="TButton is a push button control.">
<polygon fill="white" stroke="black" stroke-width="0" points="368.58,-526.2 332.88,-526.2 332.88,-507 368.58,-507 368.58,-526.2"/>
<text text-anchor="middle" x="350.73" y="-513.1" font-family="Vera Sans, DejaVu Sans, Liberation Sans, Arial, Helvetica, sans" font-size="10.00">Button</text>
</a>
</g>
</g>
<!-- WinControl&#45;&gt;Button -->
<g id="edge2" class="edge">
<title>WinControl&#45;&gt;Button</title>
<path fill="none" stroke="black" d="M249,-240.12C249,-289.74 249,-516.6 249,-516.6 249,-516.6 326.49,-516.6 326.49,-516.6"/>
<polygon fill="black" stroke="black" points="326.49,-518.35 331.49,-516.6 326.49,-514.85 326.49,-518.35"/>
</g>
<!-- CheckBox -->
<g id="node4" class="node">
<title>CheckBox</title>
<g id="a_node4"><a xlink:title="TCheckBox represents a check box that can be on (checked) or off (unchecked).">
<polygon fill="white" stroke="black" stroke-width="0" points="376.83,-500.2 324.63,-500.2 324.63,-481 376.83,-481 376.83,-500.2"/>
<text text-anchor="middle" x="350.73" y="-487.1" font-family="Vera Sans, DejaVu Sans, Liberation Sans, Arial, Helvetica, sans" font-size="10.00">CheckBox</text>
</a>
</g>
</g>
<!-- WinControl&#45;&gt;CheckBox -->
<g id="edge3" class="edge">
<title>WinControl&#45;&gt;CheckBox</title>
<path fill="none" stroke="black" d="M255,-240.16C255,-287.07 255,-490.6 255,-490.6 255,-490.6 318.31,-490.6 318.31,-490.6"/>
<polygon fill="black" stroke="black" points="318.31,-492.35 323.31,-490.6 318.31,-488.85 318.31,-492.35"/>
</g>
<!-- CustomListControl -->
<g id="node6" class="node">
<title>CustomListControl</title>
<g id="a_node6"><a xlink:title="Wrapper for Delphi TCustomListControl">
<polygon fill="white" stroke="black" stroke-width="0" points="394.45,-474.2 307,-474.2 307,-455 394.45,-455 394.45,-474.2"/>
<text text-anchor="middle" x="350.73" y="-461.1" font-family="Vera Sans, DejaVu Sans, Liberation Sans, Arial, Helvetica, sans" font-size="10.00">CustomListControl</text>
</a>
</g>
</g>
<!-- WinControl&#45;&gt;CustomListControl -->
<g id="edge14" class="edge">
<title>WinControl&#45;&gt;CustomListControl</title>
<path fill="none" stroke="black" d="M260,-240.06C260,-283.84 260,-464.6 260,-464.6 260,-464.6 300.71,-464.6 300.71,-464.6"/>
<polygon fill="black" stroke="black" points="300.71,-466.35 305.71,-464.6 300.71,-462.85 300.71,-466.35"/>
</g>
<!-- CustomControl -->
<g id="node12" class="node">
<title>CustomControl</title>
<g id="a_node12"><a xlink:title="Base class for controls that wrap Windows screen objects but perform their own rendering.">
<polygon fill="white" stroke="black" stroke-width="0" points="386.58,-448.2 314.88,-448.2 314.88,-429 386.58,-429 386.58,-448.2"/>
<text text-anchor="middle" x="350.73" y="-435.1" font-family="Vera Sans, DejaVu Sans, Liberation Sans, Arial, Helvetica, sans" font-size="10.00">CustomControl</text>
</a>
</g>
</g>
<!-- WinControl&#45;&gt;CustomControl -->
<g id="edge9" class="edge">
<title>WinControl&#45;&gt;CustomControl</title>
<path fill="none" stroke="black" d="M266,-240.05C266,-279.91 266,-432.2 266,-432.2 266,-432.2 308.77,-432.2 308.77,-432.2"/>
<polygon fill="black" stroke="black" points="308.77,-433.95 313.77,-432.2 308.77,-430.45 308.77,-433.95"/>
</g>
<!-- CustomEdit -->
<g id="node15" class="node">
<title>CustomEdit</title>
<g id="a_node15"><a xlink:title="TCustomEdit is the base class from which all edit&#45;box and memo controls are derived.">
<polygon fill="white" stroke="black" stroke-width="0" points="379.83,-331.2 321.63,-331.2 321.63,-312 379.83,-312 379.83,-331.2"/>
<text text-anchor="middle" x="350.73" y="-318.1" font-family="Vera Sans, DejaVu Sans, Liberation Sans, Arial, Helvetica, sans" font-size="10.00">CustomEdit</text>
</a>
</g>
</g>
<!-- WinControl&#45;&gt;CustomEdit -->
<g id="edge11" class="edge">
<title>WinControl&#45;&gt;CustomEdit</title>
<path fill="none" stroke="black" d="M271,-240C271,-263.25 271,-321.6 271,-321.6 271,-321.6 315.43,-321.6 315.43,-321.6"/>
<polygon fill="black" stroke="black" points="315.43,-323.35 320.43,-321.6 315.43,-319.85 315.43,-323.35"/>
</g>
<!-- CustomForm -->
<g id="node16" class="node">
<title>CustomForm</title>
<g id="a_node16"><a xlink:title="TCustomForm is the base class from which to derive a window such as a form or dialog.">
<polygon fill="white" stroke="black" stroke-width="0" points="382.45,-305.2 319,-305.2 319,-286 382.45,-286 382.45,-305.2"/>
<text text-anchor="middle" x="350.73" y="-292.1" font-family="Vera Sans, DejaVu Sans, Liberation Sans, Arial, Helvetica, sans" font-size="10.00">CustomForm</text>
</a>
</g>
</g>
<!-- WinControl&#45;&gt;CustomForm -->
<g id="edge12" class="edge">
<title>WinControl&#45;&gt;CustomForm</title>
<path fill="none" stroke="black" d="M277,-240.19C277,-258.27 277,-295.6 277,-295.6 277,-295.6 312.52,-295.6 312.52,-295.6"/>
<polygon fill="black" stroke="black" points="312.52,-297.35 317.52,-295.6 312.52,-293.85 312.52,-297.35"/>
</g>
<!-- CustomStatusBar -->
<g id="node20" class="node">
<title>CustomStatusBar</title>
<g id="a_node20"><a xlink:title="TCustomStatusBar is the base class for objects that represent status bars.">
<polygon fill="white" stroke="black" stroke-width="0" points="392.95,-279.2 308.5,-279.2 308.5,-260 392.95,-260 392.95,-279.2"/>
<text text-anchor="middle" x="350.73" y="-266.1" font-family="Vera Sans, DejaVu Sans, Liberation Sans, Arial, Helvetica, sans" font-size="10.00">CustomStatusBar</text>
</a>
</g>
</g>
<!-- WinControl&#45;&gt;CustomStatusBar -->
<g id="edge18" class="edge">
<title>WinControl&#45;&gt;CustomStatusBar</title>
<path fill="none" stroke="black" d="M282,-240.04C282,-251.58 282,-269.6 282,-269.6 282,-269.6 302.25,-269.6 302.25,-269.6"/>
<polygon fill="black" stroke="black" points="302.25,-271.35 307.25,-269.6 302.25,-267.85 302.25,-271.35"/>
</g>
<!-- CustomTabControl -->
<g id="node21" class="node">
<title>CustomTabControl</title>
<g id="a_node21"><a xlink:title="TCustomTabControl is the base type for tab control components such as TTabControl and TPageControl.">
<polygon fill="white" stroke="black" stroke-width="0" points="394.45,-253.2 307,-253.2 307,-234 394.45,-234 394.45,-253.2"/>
<text text-anchor="middle" x="350.73" y="-240.1" font-family="Vera Sans, DejaVu Sans, Liberation Sans, Arial, Helvetica, sans" font-size="10.00">CustomTabControl</text>
</a>
</g>
</g>
<!-- WinControl&#45;&gt;CustomTabControl -->
<g id="edge19" class="edge">
<title>WinControl&#45;&gt;CustomTabControl</title>
<path fill="none" stroke="black" d="M288,-240.15C288,-243.62 288,-246.7 288,-246.7 288,-246.7 300.65,-246.7 300.65,-246.7"/>
<polygon fill="black" stroke="black" points="300.65,-248.45 305.65,-246.7 300.65,-244.95 300.65,-248.45"/>
</g>
<!-- DateTimePicker -->
<g id="node22" class="node">
<title>DateTimePicker</title>
<g id="a_node22"><a xlink:title="TDateTimePicker displays a list box for entering dates or times.">
<polygon fill="white" stroke="black" stroke-width="0" points="388.83,-227.2 312.63,-227.2 312.63,-208 388.83,-208 388.83,-227.2"/>
<text text-anchor="middle" x="350.73" y="-214.1" font-family="Vera Sans, DejaVu Sans, Liberation Sans, Arial, Helvetica, sans" font-size="10.00">DateTimePicker</text>
</a>
</g>
</g>
<!-- WinControl&#45;&gt;DateTimePicker -->
<g id="edge20" class="edge">
<title>WinControl&#45;&gt;DateTimePicker</title>
<path fill="none" stroke="black" d="M288,-221.05C288,-217.58 288,-214.5 288,-214.5 288,-214.5 306.28,-214.5 306.28,-214.5"/>
<polygon fill="black" stroke="black" points="306.28,-216.25 311.28,-214.5 306.28,-212.75 306.28,-216.25"/>
</g>
<!-- PageControl -->
<g id="node35" class="node">
<title>PageControl</title>
<g id="a_node35"><a xlink:title="TPageControl is a set of pages used to make a multiple page dialog box.">
<polygon fill="white" stroke="black" stroke-width="0" points="380.95,-201.2 320.5,-201.2 320.5,-182 380.95,-182 380.95,-201.2"/>
<text text-anchor="middle" x="350.73" y="-188.1" font-family="Vera Sans, DejaVu Sans, Liberation Sans, Arial, Helvetica, sans" font-size="10.00">PageControl</text>
</a>
</g>
</g>
<!-- WinControl&#45;&gt;PageControl -->
<g id="edge32" class="edge">
<title>WinControl&#45;&gt;PageControl</title>
<path fill="none" stroke="black" d="M282,-221.16C282,-209.62 282,-191.6 282,-191.6 282,-191.6 314.27,-191.6 314.27,-191.6"/>
<polygon fill="black" stroke="black" points="314.27,-193.35 319.27,-191.6 314.27,-189.85 314.27,-193.35"/>
</g>
<!-- RadioButton -->
<g id="node37" class="node">
<title>RadioButton</title>
<g id="a_node37"><a xlink:title="TRadioButton is a wrapper for a system radio button.">
<polygon fill="white" stroke="black" stroke-width="0" points="380.95,-175.2 320.5,-175.2 320.5,-156 380.95,-156 380.95,-175.2"/>
<text text-anchor="middle" x="350.73" y="-162.1" font-family="Vera Sans, DejaVu Sans, Liberation Sans, Arial, Helvetica, sans" font-size="10.00">RadioButton</text>
</a>
</g>
</g>
<!-- WinControl&#45;&gt;RadioButton -->
<g id="edge35" class="edge">
<title>WinControl&#45;&gt;RadioButton</title>
<path fill="none" stroke="black" d="M277,-221.01C277,-202.93 277,-165.6 277,-165.6 277,-165.6 314.22,-165.6 314.22,-165.6"/>
<polygon fill="black" stroke="black" points="314.22,-167.35 319.22,-165.6 314.22,-163.85 314.22,-167.35"/>
</g>
<!-- ScrollBar -->
<g id="node39" class="node">
<title>ScrollBar</title>
<g id="a_node39"><a xlink:title="Wrapper for Delphi TScrollBar">
<polygon fill="white" stroke="black" stroke-width="0" points="374.2,-149.2 327.25,-149.2 327.25,-130 374.2,-130 374.2,-149.2"/>
<text text-anchor="middle" x="350.73" y="-136.1" font-family="Vera Sans, DejaVu Sans, Liberation Sans, Arial, Helvetica, sans" font-size="10.00">ScrollBar</text>
</a>
</g>
</g>
<!-- WinControl&#45;&gt;ScrollBar -->
<g id="edge37" class="edge">
<title>WinControl&#45;&gt;ScrollBar</title>
<path fill="none" stroke="black" d="M271,-221.2C271,-197.95 271,-139.6 271,-139.6 271,-139.6 321.15,-139.6 321.15,-139.6"/>
<polygon fill="black" stroke="black" points="321.15,-141.35 326.15,-139.6 321.15,-137.85 321.15,-141.35"/>
</g>
<!-- SpinButton -->
<g id="node40" class="node">
<title>SpinButton</title>
<g id="a_node40"><a xlink:title="TSpinButton allows the user to navigate through a range of values using the arrow buttons.">
<polygon fill="white" stroke="black" stroke-width="0" points="378.33,-123.2 323.13,-123.2 323.13,-104 378.33,-104 378.33,-123.2"/>
<text text-anchor="middle" x="350.73" y="-110.1" font-family="Vera Sans, DejaVu Sans, Liberation Sans, Arial, Helvetica, sans" font-size="10.00">SpinButton</text>
</a>
</g>
</g>
<!-- WinControl&#45;&gt;SpinButton -->
<g id="edge38" class="edge">
<title>WinControl&#45;&gt;SpinButton</title>
<path fill="none" stroke="black" d="M266,-221.03C266,-193.08 266,-113.6 266,-113.6 266,-113.6 316.94,-113.6 316.94,-113.6"/>
<polygon fill="black" stroke="black" points="316.94,-115.35 321.94,-113.6 316.94,-111.85 316.94,-115.35"/>
</g>
<!-- StaticText -->
<g id="node42" class="node">
<title>StaticText</title>
<g id="a_node42"><a xlink:title="TStaticText is a windowed control that displays text on a form.">
<polygon fill="white" stroke="black" stroke-width="0" points="376.45,-97.2 325,-97.2 325,-78 376.45,-78 376.45,-97.2"/>
<text text-anchor="middle" x="350.73" y="-84.1" font-family="Vera Sans, DejaVu Sans, Liberation Sans, Arial, Helvetica, sans" font-size="10.00">StaticText</text>
</a>
</g>
</g>
<!-- WinControl&#45;&gt;StaticText -->
<g id="edge40" class="edge">
<title>WinControl&#45;&gt;StaticText</title>
<path fill="none" stroke="black" d="M260,-221.22C260,-189.4 260,-87.6 260,-87.6 260,-87.6 318.94,-87.6 318.94,-87.6"/>
<polygon fill="black" stroke="black" points="318.94,-89.35 323.94,-87.6 318.94,-85.85 318.94,-89.35"/>
</g>
<!-- TabSheet -->
<g id="node46" class="node">
<title>TabSheet</title>
<g id="a_node46"><a xlink:title="TTabSheet is an individual page in a TPageControl object.">
<polygon fill="white" stroke="black" stroke-width="0" points="374.95,-71.2 326.5,-71.2 326.5,-52 374.95,-52 374.95,-71.2"/>
<text text-anchor="middle" x="350.73" y="-58.1" font-family="Vera Sans, DejaVu Sans, Liberation Sans, Arial, Helvetica, sans" font-size="10.00">TabSheet</text>
</a>
</g>
</g>
<!-- WinControl&#45;&gt;TabSheet -->
<g id="edge44" class="edge">
<title>WinControl&#45;&gt;TabSheet</title>
<path fill="none" stroke="black" d="M255,-221.03C255,-185.28 255,-61.6 255,-61.6 255,-61.6 320.06,-61.6 320.06,-61.6"/>
<polygon fill="black" stroke="black" points="320.06,-63.35 325.06,-61.6 320.06,-59.85 320.06,-63.35"/>
</g>
<!-- ToolBar -->
<g id="node47" class="node">
<title>ToolBar</title>
<g id="a_node47"><a xlink:title="TToolBar manages tool buttons and other controls, arranging them in rows and automatically adjusting their sizes and positions.">
<polygon fill="white" stroke="black" stroke-width="0" points="370.83,-45.2 330.63,-45.2 330.63,-26 370.83,-26 370.83,-45.2"/>
<text text-anchor="middle" x="350.73" y="-32.1" font-family="Vera Sans, DejaVu Sans, Liberation Sans, Arial, Helvetica, sans" font-size="10.00">ToolBar</text>
</a>
</g>
</g>
<!-- WinControl&#45;&gt;ToolBar -->
<g id="edge45" class="edge">
<title>WinControl&#45;&gt;ToolBar</title>
<path fill="none" stroke="black" d="M249,-221.19C249,-182.24 249,-35.6 249,-35.6 249,-35.6 324.11,-35.6 324.11,-35.6"/>
<polygon fill="black" stroke="black" points="324.11,-37.35 329.11,-35.6 324.11,-33.85 324.11,-37.35"/>
</g>
<!-- TrackBar -->
<g id="node48" class="node">
<title>TrackBar</title>
<g id="a_node48"><a xlink:title="TTrackBar is a wrapper for a track bar control.">
<polygon fill="white" stroke="black" stroke-width="0" points="373.83,-19.2 327.63,-19.2 327.63,0 373.83,0 373.83,-19.2"/>
<text text-anchor="middle" x="350.73" y="-6.1" font-family="Vera Sans, DejaVu Sans, Liberation Sans, Arial, Helvetica, sans" font-size="10.00">TrackBar</text>
</a>
</g>
</g>
<!-- WinControl&#45;&gt;TrackBar -->
<g id="edge46" class="edge">
<title>WinControl&#45;&gt;TrackBar</title>
<path fill="none" stroke="black" d="M244,-221.1C244,-178.8 244,-9.6 244,-9.6 244,-9.6 321.32,-9.6 321.32,-9.6"/>
<polygon fill="black" stroke="black" points="321.32,-11.35 326.32,-9.6 321.32,-7.85 321.32,-11.35"/>
</g>
<!-- ColorBox -->
<g id="node5" class="node">
<title>ColorBox</title>
<g id="a_node5"><a xlink:title="TColorBox represents a combo box that lets users select a color.">
<polygon fill="white" stroke="black" stroke-width="0" points="500.03,-643.2 453.08,-643.2 453.08,-624 500.03,-624 500.03,-643.2"/>
<text text-anchor="middle" x="476.55" y="-630.1" font-family="Vera Sans, DejaVu Sans, Liberation Sans, Arial, Helvetica, sans" font-size="10.00">ColorBox</text>
</a>
</g>
</g>
<!-- CustomListControl&#45;&gt;ColorBox -->
<g id="edge4" class="edge">
<title>CustomListControl&#45;&gt;ColorBox</title>
<path fill="none" stroke="black" d="M382,-474.17C382,-509.92 382,-633.6 382,-633.6 382,-633.6 446.66,-633.6 446.66,-633.6"/>
<polygon fill="black" stroke="black" points="446.66,-635.35 451.66,-633.6 446.66,-631.85 446.66,-635.35"/>
</g>
<!-- ComboBox -->
<g id="node7" class="node">
<title>ComboBox</title>
<g id="a_node7"><a xlink:title="TComboBox combines an edit box with a scrollable list.">
<polygon fill="white" stroke="black" stroke-width="0" points="504.15,-617.2 448.95,-617.2 448.95,-598 504.15,-598 504.15,-617.2"/>
<text text-anchor="middle" x="476.55" y="-604.1" font-family="Vera Sans, DejaVu Sans, Liberation Sans, Arial, Helvetica, sans" font-size="10.00">ComboBox</text>
</a>
</g>
</g>
<!-- CustomListControl&#45;&gt;ComboBox -->
<g id="edge5" class="edge">
<title>CustomListControl&#45;&gt;ComboBox</title>
<path fill="none" stroke="black" d="M386,-473.98C386,-505.8 386,-607.6 386,-607.6 386,-607.6 442.87,-607.6 442.87,-607.6"/>
<polygon fill="black" stroke="black" points="442.87,-609.35 447.87,-607.6 442.87,-605.85 442.87,-609.35"/>
</g>
<!-- CustomMultiSelectListControl -->
<g id="node18" class="node">
<title>CustomMultiSelectListControl</title>
<g id="a_node18"><a xlink:title="Wrapper for Delphi TCustomMultiSelectListControl">
<polygon fill="white" stroke="black" stroke-width="0" points="544.65,-591.2 408.45,-591.2 408.45,-572 544.65,-572 544.65,-591.2"/>
<text text-anchor="middle" x="476.55" y="-578.1" font-family="Vera Sans, DejaVu Sans, Liberation Sans, Arial, Helvetica, sans" font-size="10.00">CustomMultiSelectListControl</text>
</a>
</g>
</g>
<!-- CustomListControl&#45;&gt;CustomMultiSelectListControl -->
<g id="edge16" class="edge">
<title>CustomListControl&#45;&gt;CustomMultiSelectListControl</title>
<path fill="none" stroke="black" d="M391,-474.17C391,-502.12 391,-581.6 391,-581.6 391,-581.6 402.21,-581.6 402.21,-581.6"/>
<polygon fill="black" stroke="black" points="402.21,-583.35 407.21,-581.6 402.21,-579.85 402.21,-583.35"/>
</g>
<!-- Component -->
<g id="node8" class="node">
<title>Component</title>
<g id="a_node8"><a xlink:title="TComponent is the common ancestor of all component classes.">
<polygon fill="white" stroke="black" stroke-width="0" points="171.85,-240.2 115.15,-240.2 115.15,-221 171.85,-221 171.85,-240.2"/>
<text text-anchor="middle" x="143.5" y="-227.1" font-family="Vera Sans, DejaVu Sans, Liberation Sans, Arial, Helvetica, sans" font-size="10.00">Component</text>
</a>
</g>
</g>
<!-- Control -->
<g id="node10" class="node">
<title>Control</title>
<g id="a_node10"><a xlink:title="TControl is the base class for all components that are visible at run time.">
<polygon fill="white" stroke="black" stroke-width="0" points="223.8,-240.2 185.85,-240.2 185.85,-221 223.8,-221 223.8,-240.2"/>
<text text-anchor="middle" x="204.83" y="-227.1" font-family="Vera Sans, DejaVu Sans, Liberation Sans, Arial, Helvetica, sans" font-size="10.00">Control</text>
</a>
</g>
</g>
<!-- Component&#45;&gt;Control -->
<g id="edge7" class="edge">
<title>Component&#45;&gt;Control</title>
<path fill="none" stroke="black" d="M171.65,-230.6C171.65,-230.6 179.62,-230.6 179.62,-230.6"/>
<polygon fill="black" stroke="black" points="179.62,-232.35 184.62,-230.6 179.62,-228.85 179.62,-232.35"/>
</g>
<!-- Persistent -->
<g id="node9" class="node">
<title>Persistent</title>
<g id="a_node9"><a xlink:title="TPersistent is the ancestor for all objects that have assignment and streaming capabilities.">
<polygon fill="white" stroke="black" stroke-width="0" points="101.15,-240.2 49.7,-240.2 49.7,-221 101.15,-221 101.15,-240.2"/>
<text text-anchor="middle" x="75.43" y="-227.1" font-family="Vera Sans, DejaVu Sans, Liberation Sans, Arial, Helvetica, sans" font-size="10.00">Persistent</text>
</a>
</g>
</g>
<!-- Persistent&#45;&gt;Component -->
<g id="edge6" class="edge">
<title>Persistent&#45;&gt;Component</title>
<path fill="none" stroke="black" d="M100.77,-230.6C100.77,-230.6 108.64,-230.6 108.64,-230.6"/>
<polygon fill="black" stroke="black" points="108.64,-232.35 113.64,-230.6 108.64,-228.85 108.64,-232.35"/>
</g>
<!-- Control&#45;&gt;WinControl -->
<g id="edge47" class="edge">
<title>Control&#45;&gt;WinControl</title>
<path fill="none" stroke="black" d="M223.66,-230.6C223.66,-230.6 231.61,-230.6 231.61,-230.6"/>
<polygon fill="black" stroke="black" points="231.61,-232.35 236.61,-230.6 231.61,-228.85 231.61,-232.35"/>
</g>
<!-- ControlBar -->
<g id="node11" class="node">
<title>ControlBar</title>
<g id="a_node11"><a xlink:title="TControlBar manages the layout of toolbar components.">
<polygon fill="white" stroke="black" stroke-width="0" points="503.03,-565.2 450.08,-565.2 450.08,-546 503.03,-546 503.03,-565.2"/>
<text text-anchor="middle" x="476.55" y="-552.1" font-family="Vera Sans, DejaVu Sans, Liberation Sans, Arial, Helvetica, sans" font-size="10.00">ControlBar</text>
</a>
</g>
</g>
<!-- CustomControl&#45;&gt;ControlBar -->
<g id="edge8" class="edge">
<title>CustomControl&#45;&gt;ControlBar</title>
<path fill="none" stroke="black" d="M315.15,-445C309.24,-445 305,-445 305,-445 305,-445 305,-558.7 305,-558.7 305,-558.7 443.61,-558.7 443.61,-558.7"/>
<polygon fill="black" stroke="black" points="443.61,-560.45 448.61,-558.7 443.61,-556.95 443.61,-560.45"/>
</g>
<!-- CustomGrid -->
<g id="node14" class="node">
<title>CustomGrid</title>
<g id="a_node14"><a xlink:title="TCustomGrid is the base type for all components that present information in a two&#45;dimensional grid.">
<polygon fill="white" stroke="black" stroke-width="0" points="506.03,-539.2 447.08,-539.2 447.08,-520 506.03,-520 506.03,-539.2"/>
<text text-anchor="middle" x="476.55" y="-526.1" font-family="Vera Sans, DejaVu Sans, Liberation Sans, Arial, Helvetica, sans" font-size="10.00">CustomGrid</text>
</a>
</g>
</g>
<!-- CustomControl&#45;&gt;CustomGrid -->
<g id="edge13" class="edge">
<title>CustomControl&#45;&gt;CustomGrid</title>
<path fill="none" stroke="black" d="M315.06,-441.8C307.63,-441.8 302,-441.8 302,-441.8 302,-441.8 302,-652.2 302,-652.2 302,-652.2 549,-652.2 549,-652.2 549,-652.2 549,-532.8 549,-532.8 549,-532.8 512.53,-532.8 512.53,-532.8"/>
<polygon fill="black" stroke="black" points="512.53,-531.05 507.53,-532.8 512.53,-534.55 512.53,-531.05"/>
</g>
<!-- GroupBox -->
<g id="node26" class="node">
<title>GroupBox</title>
<g id="a_node26"><a xlink:title="TGroupBox represents a Windows group box.">
<polygon fill="white" stroke="black" stroke-width="0" points="501.9,-513.2 451.2,-513.2 451.2,-494 501.9,-494 501.9,-513.2"/>
<text text-anchor="middle" x="476.55" y="-500.1" font-family="Vera Sans, DejaVu Sans, Liberation Sans, Arial, Helvetica, sans" font-size="10.00">GroupBox</text>
</a>
</g>
</g>
<!-- CustomControl&#45;&gt;GroupBox -->
<g id="edge24" class="edge">
<title>CustomControl&#45;&gt;GroupBox</title>
<path fill="none" stroke="black" d="M315.08,-438.6C306.12,-438.6 299,-438.6 299,-438.6 299,-438.6 299,-661.2 299,-661.2 299,-661.2 552,-661.2 552,-661.2 552,-661.2 552,-503.6 552,-503.6 552,-503.6 508.19,-503.6 508.19,-503.6"/>
<polygon fill="black" stroke="black" points="508.19,-501.85 503.19,-503.6 508.19,-505.35 508.19,-501.85"/>
</g>
<!-- Header -->
<g id="node27" class="node">
<title>Header</title>
<g id="a_node27"><a xlink:title="THeader is a sectioned visual control that displays text and allows each section to be resized with the mouse.">
<polygon fill="white" stroke="black" stroke-width="0" points="495.53,-487.2 457.58,-487.2 457.58,-468 495.53,-468 495.53,-487.2"/>
<text text-anchor="middle" x="476.55" y="-474.1" font-family="Vera Sans, DejaVu Sans, Liberation Sans, Arial, Helvetica, sans" font-size="10.00">Header</text>
</a>
</g>
</g>
<!-- CustomControl&#45;&gt;Header -->
<g id="edge25" class="edge">
<title>CustomControl&#45;&gt;Header</title>
<path fill="none" stroke="black" d="M315.14,-435.4C304.69,-435.4 296,-435.4 296,-435.4 296,-435.4 296,-670.2 296,-670.2 296,-670.2 556,-670.2 556,-670.2 556,-670.2 556,-477.6 556,-477.6 556,-477.6 501.89,-477.6 501.89,-477.6"/>
<polygon fill="black" stroke="black" points="501.89,-475.85 496.89,-477.6 501.89,-479.35 501.89,-475.85"/>
</g>
<!-- Notebook -->
<g id="node31" class="node">
<title>Notebook</title>
<g id="a_node31"><a xlink:title="TNotebook displays multiple pages, each with its own set of controls.">
<polygon fill="white" stroke="black" stroke-width="0" points="500.78,-461.2 452.33,-461.2 452.33,-442 500.78,-442 500.78,-461.2"/>
<text text-anchor="middle" x="476.55" y="-448.1" font-family="Vera Sans, DejaVu Sans, Liberation Sans, Arial, Helvetica, sans" font-size="10.00">Notebook</text>
</a>
</g>
</g>
<!-- CustomControl&#45;&gt;Notebook -->
<g id="edge29" class="edge">
<title>CustomControl&#45;&gt;Notebook</title>
<path fill="none" stroke="black" d="M371,-429.08C371,-426.63 371,-424.67 371,-424.67 371,-424.67 457,-424.67 457,-424.67 457,-424.67 457,-435.67 457,-435.67"/>
<polygon fill="black" stroke="black" points="455.25,-435.67 457,-440.67 458.75,-435.67 455.25,-435.67"/>
</g>
<!-- Page -->
<g id="node34" class="node">
<title>Page</title>
<g id="a_node34"><a xlink:title="Specifies a page in a TNotebook control.">
<polygon fill="white" stroke="black" stroke-width="0" points="491.4,-435.2 461.7,-435.2 461.7,-416 491.4,-416 491.4,-435.2"/>
<text text-anchor="middle" x="476.55" y="-422.1" font-family="Vera Sans, DejaVu Sans, Liberation Sans, Arial, Helvetica, sans" font-size="10.00">Page</text>
</a>
</g>
</g>
<!-- CustomControl&#45;&gt;Page -->
<g id="edge31" class="edge">
<title>CustomControl&#45;&gt;Page</title>
<path fill="none" stroke="black" d="M361,-429.04C361,-424.62 361,-420.33 361,-420.33 361,-420.33 455.4,-420.33 455.4,-420.33"/>
<polygon fill="black" stroke="black" points="455.4,-422.08 460.4,-420.33 455.4,-418.58 455.4,-422.08"/>
</g>
<!-- Panel -->
<g id="node36" class="node">
<title>Panel</title>
<g id="a_node36"><a xlink:title="Wrapper for Delphi TPanel">
<polygon fill="white" stroke="black" stroke-width="0" points="492.53,-409.2 460.58,-409.2 460.58,-390 492.53,-390 492.53,-409.2"/>
<text text-anchor="middle" x="476.55" y="-396.1" font-family="Vera Sans, DejaVu Sans, Liberation Sans, Arial, Helvetica, sans" font-size="10.00">Panel</text>
</a>
</g>
</g>
<!-- CustomControl&#45;&gt;Panel -->
<g id="edge33" class="edge">
<title>CustomControl&#45;&gt;Panel</title>
<path fill="none" stroke="black" d="M342,-429.16C342,-417.62 342,-399.6 342,-399.6 342,-399.6 454.07,-399.6 454.07,-399.6"/>
<polygon fill="black" stroke="black" points="454.07,-401.35 459.07,-399.6 454.07,-397.85 454.07,-401.35"/>
</g>
<!-- RadioGroup -->
<g id="node38" class="node">
<title>RadioGroup</title>
<g id="a_node38"><a xlink:title="TRadioGroup represents a group of radio buttons that function together.">
<polygon fill="white" stroke="black" stroke-width="0" points="505.65,-383.2 447.45,-383.2 447.45,-364 505.65,-364 505.65,-383.2"/>
<text text-anchor="middle" x="476.55" y="-370.1" font-family="Vera Sans, DejaVu Sans, Liberation Sans, Arial, Helvetica, sans" font-size="10.00">RadioGroup</text>
</a>
</g>
</g>
<!-- CustomControl&#45;&gt;RadioGroup -->
<g id="edge36" class="edge">
<title>CustomControl&#45;&gt;RadioGroup</title>
<path fill="none" stroke="black" d="M332,-429.01C332,-410.93 332,-373.6 332,-373.6 332,-373.6 441.13,-373.6 441.13,-373.6"/>
<polygon fill="black" stroke="black" points="441.13,-375.35 446.13,-373.6 441.13,-371.85 441.13,-375.35"/>
</g>
<!-- CustomDrawGrid -->
<g id="node13" class="node">
<title>CustomDrawGrid</title>
<g id="a_node13"><a xlink:title="TCustomDrawGrid is the base class for grids that publish events for painting and manipulating the cells in the grid.">
<polygon fill="white" stroke="black" stroke-width="0" points="639.35,-539.2 558.65,-539.2 558.65,-520 639.35,-520 639.35,-539.2"/>
<text text-anchor="middle" x="599" y="-526.1" font-family="Vera Sans, DejaVu Sans, Liberation Sans, Arial, Helvetica, sans" font-size="10.00">CustomDrawGrid</text>
</a>
</g>
</g>
<!-- DrawGrid -->
<g id="node23" class="node">
<title>DrawGrid</title>
<g id="a_node23"><a xlink:title="TDrawGrid represents a grid control that displays information in column and row format.">
<polygon fill="white" stroke="black" stroke-width="0" points="700.3,-539.2 653.35,-539.2 653.35,-520 700.3,-520 700.3,-539.2"/>
<text text-anchor="middle" x="676.83" y="-526.1" font-family="Vera Sans, DejaVu Sans, Liberation Sans, Arial, Helvetica, sans" font-size="10.00">DrawGrid</text>
</a>
</g>
</g>
<!-- CustomDrawGrid&#45;&gt;DrawGrid -->
<g id="edge21" class="edge">
<title>CustomDrawGrid&#45;&gt;DrawGrid</title>
<path fill="none" stroke="black" d="M639.28,-529.6C639.28,-529.6 647.06,-529.6 647.06,-529.6"/>
<polygon fill="black" stroke="black" points="647.06,-531.35 652.06,-529.6 647.06,-527.85 647.06,-531.35"/>
</g>
<!-- CustomGrid&#45;&gt;CustomDrawGrid -->
<g id="edge10" class="edge">
<title>CustomGrid&#45;&gt;CustomDrawGrid</title>
<path fill="none" stroke="black" d="M505.88,-526.4C505.88,-526.4 552.29,-526.4 552.29,-526.4"/>
<polygon fill="black" stroke="black" points="552.29,-528.15 557.29,-526.4 552.29,-524.65 552.29,-528.15"/>
</g>
<!-- CustomMemo -->
<g id="node17" class="node">
<title>CustomMemo</title>
<g id="a_node17"><a xlink:title="TCustomMemo is the base type for memo components, which are multiline edit boxes, including TMemo and TDBMemo.">
<polygon fill="white" stroke="black" stroke-width="0" points="510.53,-357.2 442.58,-357.2 442.58,-338 510.53,-338 510.53,-357.2"/>
<text text-anchor="middle" x="476.55" y="-344.1" font-family="Vera Sans, DejaVu Sans, Liberation Sans, Arial, Helvetica, sans" font-size="10.00">CustomMemo</text>
</a>
</g>
</g>
<!-- CustomEdit&#45;&gt;CustomMemo -->
<g id="edge15" class="edge">
<title>CustomEdit&#45;&gt;CustomMemo</title>
<path fill="none" stroke="black" d="M351,-330.99C351,-338.43 351,-347.6 351,-347.6 351,-347.6 436.39,-347.6 436.39,-347.6"/>
<polygon fill="black" stroke="black" points="436.39,-349.35 441.39,-347.6 436.39,-345.85 436.39,-349.35"/>
</g>
<!-- CustomNumberBox -->
<g id="node19" class="node">
<title>CustomNumberBox</title>
<g id="a_node19"><a xlink:title="TCustomEdit is the base class from which all edit&#45;box and memo controls are derived.">
<polygon fill="white" stroke="black" stroke-width="0" points="522.53,-331.2 430.58,-331.2 430.58,-312 522.53,-312 522.53,-331.2"/>
<text text-anchor="middle" x="476.55" y="-318.1" font-family="Vera Sans, DejaVu Sans, Liberation Sans, Arial, Helvetica, sans" font-size="10.00">CustomNumberBox</text>
</a>
</g>
</g>
<!-- CustomEdit&#45;&gt;CustomNumberBox -->
<g id="edge17" class="edge">
<title>CustomEdit&#45;&gt;CustomNumberBox</title>
<path fill="none" stroke="black" d="M379.59,-327.36C379.59,-327.36 424.53,-327.36 424.53,-327.36"/>
<polygon fill="black" stroke="black" points="424.53,-329.11 429.53,-327.36 424.53,-325.61 424.53,-329.11"/>
</g>
<!-- Edit -->
<g id="node24" class="node">
<title>Edit</title>
<g id="a_node24"><a xlink:title="TEdit is a wrapper for a Windows single&#45;line edit control.">
<polygon fill="white" stroke="black" stroke-width="0" points="488.78,-305.2 464.33,-305.2 464.33,-286 488.78,-286 488.78,-305.2"/>
<text text-anchor="middle" x="476.55" y="-292.1" font-family="Vera Sans, DejaVu Sans, Liberation Sans, Arial, Helvetica, sans" font-size="10.00">Edit</text>
</a>
</g>
</g>
<!-- CustomEdit&#45;&gt;Edit -->
<g id="edge22" class="edge">
<title>CustomEdit&#45;&gt;Edit</title>
<path fill="none" stroke="black" d="M379.52,-323.52C393.37,-323.52 407,-323.52 407,-323.52 407,-323.52 407,-298.8 407,-298.8 407,-298.8 457.92,-298.8 457.92,-298.8"/>
<polygon fill="black" stroke="black" points="457.92,-300.55 462.92,-298.8 457.92,-297.05 457.92,-300.55"/>
</g>
<!-- LabeledEdit -->
<g id="node28" class="node">
<title>LabeledEdit</title>
<g id="a_node28"><a xlink:title="TLabeledEdit is an edit control that has an associated label.">
<polygon fill="white" stroke="black" stroke-width="0" points="505.65,-279.2 447.45,-279.2 447.45,-260 505.65,-260 505.65,-279.2"/>
<text text-anchor="middle" x="476.55" y="-266.1" font-family="Vera Sans, DejaVu Sans, Liberation Sans, Arial, Helvetica, sans" font-size="10.00">LabeledEdit</text>
</a>
</g>
</g>
<!-- CustomEdit&#45;&gt;LabeledEdit -->
<g id="edge26" class="edge">
<title>CustomEdit&#45;&gt;LabeledEdit</title>
<path fill="none" stroke="black" d="M379.77,-319.68C392.67,-319.68 405,-319.68 405,-319.68 405,-319.68 405,-272.8 405,-272.8 405,-272.8 441.35,-272.8 441.35,-272.8"/>
<polygon fill="black" stroke="black" points="441.35,-274.55 446.35,-272.8 441.35,-271.05 441.35,-274.55"/>
</g>
<!-- SpinEdit -->
<g id="node41" class="node">
<title>SpinEdit</title>
<g id="a_node41"><a xlink:title="TSpinEdit combines a TEdit box with a TSpinButton.">
<polygon fill="white" stroke="black" stroke-width="0" points="498.53,-253.2 454.58,-253.2 454.58,-234 498.53,-234 498.53,-253.2"/>
<text text-anchor="middle" x="476.55" y="-240.1" font-family="Vera Sans, DejaVu Sans, Liberation Sans, Arial, Helvetica, sans" font-size="10.00">SpinEdit</text>
</a>
</g>
</g>
<!-- CustomEdit&#45;&gt;SpinEdit -->
<g id="edge39" class="edge">
<title>CustomEdit&#45;&gt;SpinEdit</title>
<path fill="none" stroke="black" d="M379.61,-315.84C391.7,-315.84 403,-315.84 403,-315.84 403,-315.84 403,-246.8 403,-246.8 403,-246.8 448.37,-246.8 448.37,-246.8"/>
<polygon fill="black" stroke="black" points="448.37,-248.55 453.37,-246.8 448.37,-245.05 448.37,-248.55"/>
</g>
<!-- Form -->
<g id="node25" class="node">
<title>Form</title>
<g id="a_node25"><a xlink:title="TForm represents a standard application window (form).">
<polygon fill="white" stroke="black" stroke-width="0" points="491.4,-227.2 461.7,-227.2 461.7,-208 491.4,-208 491.4,-227.2"/>
<text text-anchor="middle" x="476.55" y="-214.1" font-family="Vera Sans, DejaVu Sans, Liberation Sans, Arial, Helvetica, sans" font-size="10.00">Form</text>
</a>
</g>
</g>
<!-- CustomForm&#45;&gt;Form -->
<g id="edge23" class="edge">
<title>CustomForm&#45;&gt;Form</title>
<path fill="none" stroke="black" d="M382.28,-292.4C392.38,-292.4 401,-292.4 401,-292.4 401,-292.4 401,-217.6 401,-217.6 401,-217.6 455.47,-217.6 455.47,-217.6"/>
<polygon fill="black" stroke="black" points="455.47,-219.35 460.47,-217.6 455.47,-215.85 455.47,-219.35"/>
</g>
<!-- Memo -->
<g id="node30" class="node">
<title>Memo</title>
<g id="a_node30"><a xlink:title="TMemo is a wrapper for a Windows multiline edit control.">
<polygon fill="white" stroke="black" stroke-width="0" points="616.1,-357.2 581.9,-357.2 581.9,-338 616.1,-338 616.1,-357.2"/>
<text text-anchor="middle" x="599" y="-344.1" font-family="Vera Sans, DejaVu Sans, Liberation Sans, Arial, Helvetica, sans" font-size="10.00">Memo</text>
</a>
</g>
</g>
<!-- CustomMemo&#45;&gt;Memo -->
<g id="edge28" class="edge">
<title>CustomMemo&#45;&gt;Memo</title>
<path fill="none" stroke="black" d="M510.33,-347.6C510.33,-347.6 575.7,-347.6 575.7,-347.6"/>
<polygon fill="black" stroke="black" points="575.7,-349.35 580.7,-347.6 575.7,-345.85 575.7,-349.35"/>
</g>
<!-- ListBox -->
<g id="node29" class="node">
<title>ListBox</title>
<g id="a_node29"><a xlink:title="TListBox displays a collection of items in a scrollable list.">
<polygon fill="white" stroke="black" stroke-width="0" points="619.1,-591.2 578.9,-591.2 578.9,-572 619.1,-572 619.1,-591.2"/>
<text text-anchor="middle" x="599" y="-578.1" font-family="Vera Sans, DejaVu Sans, Liberation Sans, Arial, Helvetica, sans" font-size="10.00">ListBox</text>
</a>
</g>
</g>
<!-- CustomMultiSelectListControl&#45;&gt;ListBox -->
<g id="edge27" class="edge">
<title>CustomMultiSelectListControl&#45;&gt;ListBox</title>
<path fill="none" stroke="black" d="M544.58,-581.6C544.58,-581.6 572.41,-581.6 572.41,-581.6"/>
<polygon fill="black" stroke="black" points="572.41,-583.35 577.41,-581.6 572.41,-579.85 572.41,-583.35"/>
</g>
<!-- NumberBox -->
<g id="node32" class="node">
<title>NumberBox</title>
<g id="a_node32"><a xlink:title="TNumberBox is a numeric input control that supports the input of integer numbers, floating point numbers with a given set of decimal digits and proper formatting, and currency values.">
<polygon fill="white" stroke="black" stroke-width="0" points="628.1,-331.2 569.9,-331.2 569.9,-312 628.1,-312 628.1,-331.2"/>
<text text-anchor="middle" x="599" y="-318.1" font-family="Vera Sans, DejaVu Sans, Liberation Sans, Arial, Helvetica, sans" font-size="10.00">NumberBox</text>
</a>
</g>
</g>
<!-- CustomNumberBox&#45;&gt;NumberBox -->
<g id="edge30" class="edge">
<title>CustomNumberBox&#45;&gt;NumberBox</title>
<path fill="none" stroke="black" d="M522.49,-321.6C522.49,-321.6 563.72,-321.6 563.72,-321.6"/>
<polygon fill="black" stroke="black" points="563.72,-323.35 568.72,-321.6 563.72,-319.85 563.72,-323.35"/>
</g>
<!-- StatusBar -->
<g id="node43" class="node">
<title>StatusBar</title>
<g id="a_node43"><a xlink:title="TStatusBar represents a status bar.">
<polygon fill="white" stroke="black" stroke-width="0" points="501.9,-201.2 451.2,-201.2 451.2,-182 501.9,-182 501.9,-201.2"/>
<text text-anchor="middle" x="476.55" y="-188.1" font-family="Vera Sans, DejaVu Sans, Liberation Sans, Arial, Helvetica, sans" font-size="10.00">StatusBar</text>
</a>
</g>
</g>
<!-- CustomStatusBar&#45;&gt;StatusBar -->
<g id="edge41" class="edge">
<title>CustomStatusBar&#45;&gt;StatusBar</title>
<path fill="none" stroke="black" d="M392.69,-266.4C396.52,-266.4 399,-266.4 399,-266.4 399,-266.4 399,-191.6 399,-191.6 399,-191.6 445.07,-191.6 445.07,-191.6"/>
<polygon fill="black" stroke="black" points="445.07,-193.35 450.07,-191.6 445.07,-189.85 445.07,-193.35"/>
</g>
<!-- TabControl -->
<g id="node45" class="node">
<title>TabControl</title>
<g id="a_node45"><a xlink:title="TTabControl is a tab set that has the appearance of notebook dividers.">
<polygon fill="white" stroke="black" stroke-width="0" points="503.4,-175.2 449.7,-175.2 449.7,-156 503.4,-156 503.4,-175.2"/>
<text text-anchor="middle" x="476.55" y="-162.1" font-family="Vera Sans, DejaVu Sans, Liberation Sans, Arial, Helvetica, sans" font-size="10.00">TabControl</text>
</a>
</g>
</g>
<!-- CustomTabControl&#45;&gt;TabControl -->
<g id="edge43" class="edge">
<title>CustomTabControl&#45;&gt;TabControl</title>
<path fill="none" stroke="black" d="M394.24,-240.4C395.98,-240.4 397,-240.4 397,-240.4 397,-240.4 397,-165.6 397,-165.6 397,-165.6 443.55,-165.6 443.55,-165.6"/>
<polygon fill="black" stroke="black" points="443.55,-167.35 448.55,-165.6 443.55,-163.85 443.55,-167.35"/>
</g>
<!-- StringGrid -->
<g id="node44" class="node">
<title>StringGrid</title>
<g id="a_node44"><a xlink:title="TStringGrid represents a grid control designed to simplify the handling of strings and associated objects.">
<polygon fill="white" stroke="black" stroke-width="0" points="765,-539.2 714.3,-539.2 714.3,-520 765,-520 765,-539.2"/>
<text text-anchor="middle" x="739.65" y="-526.1" font-family="Vera Sans, DejaVu Sans, Liberation Sans, Arial, Helvetica, sans" font-size="10.00">StringGrid</text>
</a>
</g>
</g>
<!-- DrawGrid&#45;&gt;StringGrid -->
<g id="edge42" class="edge">
<title>DrawGrid&#45;&gt;StringGrid</title>
<path fill="none" stroke="black" d="M700.22,-529.6C700.22,-529.6 707.83,-529.6 707.83,-529.6"/>
<polygon fill="black" stroke="black" points="707.83,-531.35 712.83,-529.6 707.83,-527.85 707.83,-531.35"/>
</g>
<!-- Object -->
<g id="node33" class="node">
<title>Object</title>
<g id="a_node33"><a xlink:title="TObject is the ultimate ancestor of all objects and components.">
<polygon fill="white" stroke="black" stroke-width="0" points="35.7,-240.2 0,-240.2 0,-221 35.7,-221 35.7,-240.2"/>
<text text-anchor="middle" x="17.85" y="-227.1" font-family="Vera Sans, DejaVu Sans, Liberation Sans, Arial, Helvetica, sans" font-size="10.00">Object</text>
</a>
</g>
</g>
<!-- Object&#45;&gt;Persistent -->
<g id="edge34" class="edge">
<title>Object&#45;&gt;Persistent</title>
<path fill="none" stroke="black" d="M35.44,-230.6C35.44,-230.6 43.59,-230.6 43.59,-230.6"/>
<polygon fill="black" stroke="black" points="43.59,-232.35 48.59,-230.6 43.59,-228.85 43.59,-232.35"/>
</g>
</g>
</svg>
