<?xml version="1.0" encoding="UTF-8" standalone="no"?>
<!DOCTYPE svg PUBLIC "-//W3C//DTD SVG 1.1//EN"
 "http://www.w3.org/Graphics/SVG/1.1/DTD/svg11.dtd">
<!-- Generated by graphviz version 9.0.0 (20230911.1827)
 -->
<!-- Title: inheritanceb9e814220f Pages: 1 -->
<svg width="1112pt" height="79pt"
 viewBox="0.00 0.00 1112.00 79.20" xmlns="http://www.w3.org/2000/svg" xmlns:xlink="http://www.w3.org/1999/xlink">
<g id="graph0" class="graph" transform="scale(1 1) rotate(0) translate(4 75.2)">
<title>inheritanceb9e814220f</title>
<!-- BasicBindComponent -->
<g id="node1" class="node">
<title>BasicBindComponent</title>
<g id="a_node1"><a xlink:title="Wrapper for Delphi TBasicBindComponent">
<polygon fill="white" stroke="black" stroke-width="0" points="286.8,-58.2 185.85,-58.2 185.85,-39 286.8,-39 286.8,-58.2"/>
<text text-anchor="middle" x="236.33" y="-45.1" font-family="Vera Sans, DejaVu Sans, Liberation Sans, Arial, Helvetica, sans" font-size="10.00">BasicBindComponent</text>
</a>
</g>
</g>
<!-- ContainedBindComponent -->
<g id="node4" class="node">
<title>ContainedBindComponent</title>
<g id="a_node4"><a xlink:title="Base class for all common binding components descending from it.">
<polygon fill="white" stroke="black" stroke-width="0" points="420.5,-58.2 300.8,-58.2 300.8,-39 420.5,-39 420.5,-58.2"/>
<text text-anchor="middle" x="360.65" y="-45.1" font-family="Vera Sans, DejaVu Sans, Liberation Sans, Arial, Helvetica, sans" font-size="10.00">ContainedBindComponent</text>
</a>
</g>
</g>
<!-- BasicBindComponent&#45;&gt;ContainedBindComponent -->
<g id="edge4" class="edge">
<title>BasicBindComponent&#45;&gt;ContainedBindComponent</title>
<path fill="none" stroke="black" d="M286.53,-48.6C286.53,-48.6 294.35,-48.6 294.35,-48.6"/>
<polygon fill="black" stroke="black" points="294.35,-50.35 299.35,-48.6 294.35,-46.85 294.35,-50.35"/>
</g>
<!-- Component -->
<g id="node2" class="node">
<title>Component</title>
<g id="a_node2"><a xlink:title="TComponent is the common ancestor of all component classes.">
<polygon fill="white" stroke="black" stroke-width="0" points="171.85,-58.2 115.15,-58.2 115.15,-39 171.85,-39 171.85,-58.2"/>
<text text-anchor="middle" x="143.5" y="-45.1" font-family="Vera Sans, DejaVu Sans, Liberation Sans, Arial, Helvetica, sans" font-size="10.00">Component</text>
</a>
</g>
</g>
<!-- Component&#45;&gt;BasicBindComponent -->
<g id="edge1" class="edge">
<title>Component&#45;&gt;BasicBindComponent</title>
<path fill="none" stroke="black" d="M171.6,-48.6C171.6,-48.6 179.48,-48.6 179.48,-48.6"/>
<polygon fill="black" stroke="black" points="179.48,-50.35 184.48,-48.6 179.48,-46.85 179.48,-50.35"/>
</g>
<!-- BindComponentDelegate -->
<g id="node3" class="node">
<title>BindComponentDelegate</title>
<g id="a_node3"><a xlink:title="Is a binding component that wraps one or more other binding components.">
<polygon fill="white" stroke="black" stroke-width="0" points="548.95,-58.2 434.5,-58.2 434.5,-39 548.95,-39 548.95,-58.2"/>
<text text-anchor="middle" x="491.73" y="-45.1" font-family="Vera Sans, DejaVu Sans, Liberation Sans, Arial, Helvetica, sans" font-size="10.00">BindComponentDelegate</text>
</a>
</g>
</g>
<!-- LinkPropertyToFieldDelegate -->
<g id="node10" class="node">
<title>LinkPropertyToFieldDelegate</title>
<g id="a_node10"><a xlink:title="Is a binding component that wraps another binding component and references a component property, data source, and field name.">
<polygon fill="white" stroke="black" stroke-width="0" points="694.65,-71.2 562.95,-71.2 562.95,-52 694.65,-52 694.65,-71.2"/>
<text text-anchor="middle" x="628.8" y="-58.1" font-family="Vera Sans, DejaVu Sans, Liberation Sans, Arial, Helvetica, sans" font-size="10.00">LinkPropertyToFieldDelegate</text>
</a>
</g>
</g>
<!-- BindComponentDelegate&#45;&gt;LinkPropertyToFieldDelegate -->
<g id="edge13" class="edge">
<title>BindComponentDelegate&#45;&gt;LinkPropertyToFieldDelegate</title>
<path fill="none" stroke="black" d="M492,-58.15C492,-61.62 492,-64.7 492,-64.7 492,-64.7 556.69,-64.7 556.69,-64.7"/>
<polygon fill="black" stroke="black" points="556.69,-66.45 561.69,-64.7 556.69,-62.95 556.69,-66.45"/>
</g>
<!-- LinkControlDelegate -->
<g id="node11" class="node">
<title>LinkControlDelegate</title>
<g id="a_node11"><a xlink:title="Is a binding component that wraps another binding component and references a control.">
<polygon fill="white" stroke="black" stroke-width="0" points="675.9,-45.2 581.7,-45.2 581.7,-26 675.9,-26 675.9,-45.2"/>
<text text-anchor="middle" x="628.8" y="-32.1" font-family="Vera Sans, DejaVu Sans, Liberation Sans, Arial, Helvetica, sans" font-size="10.00">LinkControlDelegate</text>
</a>
</g>
</g>
<!-- BindComponentDelegate&#45;&gt;LinkControlDelegate -->
<g id="edge8" class="edge">
<title>BindComponentDelegate&#45;&gt;LinkControlDelegate</title>
<path fill="none" stroke="black" d="M492,-39.05C492,-35.58 492,-32.5 492,-32.5 492,-32.5 575.21,-32.5 575.21,-32.5"/>
<polygon fill="black" stroke="black" points="575.21,-34.25 580.21,-32.5 575.21,-30.75 575.21,-34.25"/>
</g>
<!-- ContainedBindComponent&#45;&gt;BindComponentDelegate -->
<g id="edge2" class="edge">
<title>ContainedBindComponent&#45;&gt;BindComponentDelegate</title>
<path fill="none" stroke="black" d="M420.43,-48.6C420.43,-48.6 428.12,-48.6 428.12,-48.6"/>
<polygon fill="black" stroke="black" points="428.12,-50.35 433.12,-48.6 428.12,-46.85 428.12,-50.35"/>
</g>
<!-- Persistent -->
<g id="node5" class="node">
<title>Persistent</title>
<g id="a_node5"><a xlink:title="TPersistent is the ancestor for all objects that have assignment and streaming capabilities.">
<polygon fill="white" stroke="black" stroke-width="0" points="101.15,-58.2 49.7,-58.2 49.7,-39 101.15,-39 101.15,-58.2"/>
<text text-anchor="middle" x="75.42" y="-45.1" font-family="Vera Sans, DejaVu Sans, Liberation Sans, Arial, Helvetica, sans" font-size="10.00">Persistent</text>
</a>
</g>
</g>
<!-- Persistent&#45;&gt;Component -->
<g id="edge3" class="edge">
<title>Persistent&#45;&gt;Component</title>
<path fill="none" stroke="black" d="M100.77,-48.6C100.77,-48.6 108.64,-48.6 108.64,-48.6"/>
<polygon fill="black" stroke="black" points="108.64,-50.35 113.64,-48.6 108.64,-46.85 108.64,-50.35"/>
</g>
<!-- CustomLinkControlToField -->
<g id="node6" class="node">
<title>CustomLinkControlToField</title>
<g id="a_node6"><a xlink:title="Represents the base class for linking a control to a field.">
<polygon fill="white" stroke="black" stroke-width="0" points="978.93,-45.2 857.73,-45.2 857.73,-26 978.93,-26 978.93,-45.2"/>
<text text-anchor="middle" x="918.33" y="-32.1" font-family="Vera Sans, DejaVu Sans, Liberation Sans, Arial, Helvetica, sans" font-size="10.00">CustomLinkControlToField</text>
</a>
</g>
</g>
<!-- LinkControlToField -->
<g id="node12" class="node">
<title>LinkControlToField</title>
<g id="a_node12"><a xlink:title="Links a list control to a field.">
<polygon fill="white" stroke="black" stroke-width="0" points="1096.12,-45.2 1008.68,-45.2 1008.68,-26 1096.12,-26 1096.12,-45.2"/>
<text text-anchor="middle" x="1052.4" y="-32.1" font-family="Vera Sans, DejaVu Sans, Liberation Sans, Arial, Helvetica, sans" font-size="10.00">LinkControlToField</text>
</a>
</g>
</g>
<!-- CustomLinkControlToField&#45;&gt;LinkControlToField -->
<g id="edge9" class="edge">
<title>CustomLinkControlToField&#45;&gt;LinkControlToField</title>
<path fill="none" stroke="black" d="M978.69,-35.6C978.69,-35.6 1002.3,-35.6 1002.3,-35.6"/>
<polygon fill="black" stroke="black" points="1002.3,-37.35 1007.3,-35.6 1002.3,-33.85 1002.3,-37.35"/>
</g>
<!-- LinkControlToFieldDelegate -->
<g id="node7" class="node">
<title>LinkControlToFieldDelegate</title>
<g id="a_node7"><a xlink:title="Is a binding component that wraps another binding component and references a control, data source, and field.">
<polygon fill="white" stroke="black" stroke-width="0" points="835.1,-45.2 709.4,-45.2 709.4,-26 835.1,-26 835.1,-45.2"/>
<text text-anchor="middle" x="772.25" y="-32.1" font-family="Vera Sans, DejaVu Sans, Liberation Sans, Arial, Helvetica, sans" font-size="10.00">LinkControlToFieldDelegate</text>
</a>
</g>
</g>
<!-- LinkControlToFieldDelegate&#45;&gt;CustomLinkControlToField -->
<g id="edge5" class="edge">
<title>LinkControlToFieldDelegate&#45;&gt;CustomLinkControlToField</title>
<path fill="none" stroke="black" d="M835.05,-38.8C835.05,-38.8 851.38,-38.8 851.38,-38.8"/>
<polygon fill="black" stroke="black" points="851.38,-40.55 856.38,-38.8 851.38,-37.05 851.38,-40.55"/>
</g>
<!-- CustomLinkListControlToField -->
<g id="node8" class="node">
<title>CustomLinkListControlToField</title>
<g id="a_node8"><a xlink:title="Represents the base class for linking a list control to a field.">
<polygon fill="white" stroke="black" stroke-width="0" points="986.8,-19.2 849.85,-19.2 849.85,0 986.8,0 986.8,-19.2"/>
<text text-anchor="middle" x="918.33" y="-6.1" font-family="Vera Sans, DejaVu Sans, Liberation Sans, Arial, Helvetica, sans" font-size="10.00">CustomLinkListControlToField</text>
</a>
</g>
</g>
<!-- LinkControlToFieldDelegate&#45;&gt;CustomLinkListControlToField -->
<g id="edge6" class="edge">
<title>LinkControlToFieldDelegate&#45;&gt;CustomLinkListControlToField</title>
<path fill="none" stroke="black" d="M835.04,-32.4C846.02,-32.4 854,-32.4 854,-32.4 854,-32.4 854,-25.65 854,-25.65"/>
<polygon fill="black" stroke="black" points="855.75,-25.65 854,-20.65 852.25,-25.65 855.75,-25.65"/>
</g>
<!-- LinkListControlToField -->
<g id="node13" class="node">
<title>LinkListControlToField</title>
<g id="a_node13"><a xlink:title="Links a list control to a field.">
<polygon fill="white" stroke="black" stroke-width="0" points="1104,-19.2 1000.8,-19.2 1000.8,0 1104,0 1104,-19.2"/>
<text text-anchor="middle" x="1052.4" y="-6.1" font-family="Vera Sans, DejaVu Sans, Liberation Sans, Arial, Helvetica, sans" font-size="10.00">LinkListControlToField</text>
</a>
</g>
</g>
<!-- CustomLinkListControlToField&#45;&gt;LinkListControlToField -->
<g id="edge11" class="edge">
<title>CustomLinkListControlToField&#45;&gt;LinkListControlToField</title>
<path fill="none" stroke="black" d="M986.54,-9.6C986.54,-9.6 994.65,-9.6 994.65,-9.6"/>
<polygon fill="black" stroke="black" points="994.65,-11.35 999.65,-9.6 994.65,-7.85 994.65,-11.35"/>
</g>
<!-- CustomLinkPropertyToField -->
<g id="node9" class="node">
<title>CustomLinkPropertyToField</title>
<g id="a_node9"><a xlink:title="Represents the base class for linking a property of a component to a field.">
<polygon fill="white" stroke="black" stroke-width="0" points="835.85,-71.2 708.65,-71.2 708.65,-52 835.85,-52 835.85,-71.2"/>
<text text-anchor="middle" x="772.25" y="-58.1" font-family="Vera Sans, DejaVu Sans, Liberation Sans, Arial, Helvetica, sans" font-size="10.00">CustomLinkPropertyToField</text>
</a>
</g>
</g>
<!-- LinkPropertyToField -->
<g id="node14" class="node">
<title>LinkPropertyToField</title>
<g id="a_node14"><a xlink:title="Links the property of a component to a field.">
<polygon fill="white" stroke="black" stroke-width="0" points="965.05,-71.2 871.6,-71.2 871.6,-52 965.05,-52 965.05,-71.2"/>
<text text-anchor="middle" x="918.33" y="-58.1" font-family="Vera Sans, DejaVu Sans, Liberation Sans, Arial, Helvetica, sans" font-size="10.00">LinkPropertyToField</text>
</a>
</g>
</g>
<!-- CustomLinkPropertyToField&#45;&gt;LinkPropertyToField -->
<g id="edge12" class="edge">
<title>CustomLinkPropertyToField&#45;&gt;LinkPropertyToField</title>
<path fill="none" stroke="black" d="M835.47,-61.6C835.47,-61.6 865.23,-61.6 865.23,-61.6"/>
<polygon fill="black" stroke="black" points="865.23,-63.35 870.23,-61.6 865.23,-59.85 865.23,-63.35"/>
</g>
<!-- LinkPropertyToFieldDelegate&#45;&gt;CustomLinkPropertyToField -->
<g id="edge7" class="edge">
<title>LinkPropertyToFieldDelegate&#45;&gt;CustomLinkPropertyToField</title>
<path fill="none" stroke="black" d="M694.65,-61.6C694.65,-61.6 702.3,-61.6 702.3,-61.6"/>
<polygon fill="black" stroke="black" points="702.3,-63.35 707.3,-61.6 702.3,-59.85 702.3,-63.35"/>
</g>
<!-- LinkControlDelegate&#45;&gt;LinkControlToFieldDelegate -->
<g id="edge10" class="edge">
<title>LinkControlDelegate&#45;&gt;LinkControlToFieldDelegate</title>
<path fill="none" stroke="black" d="M675.77,-35.6C675.77,-35.6 703.01,-35.6 703.01,-35.6"/>
<polygon fill="black" stroke="black" points="703.01,-37.35 708.01,-35.6 703.01,-33.85 703.01,-37.35"/>
</g>
<!-- Object -->
<g id="node15" class="node">
<title>Object</title>
<g id="a_node15"><a xlink:title="TObject is the ultimate ancestor of all objects and components.">
<polygon fill="white" stroke="black" stroke-width="0" points="35.7,-58.2 0,-58.2 0,-39 35.7,-39 35.7,-58.2"/>
<text text-anchor="middle" x="17.85" y="-45.1" font-family="Vera Sans, DejaVu Sans, Liberation Sans, Arial, Helvetica, sans" font-size="10.00">Object</text>
</a>
</g>
</g>
<!-- Object&#45;&gt;Persistent -->
<g id="edge14" class="edge">
<title>Object&#45;&gt;Persistent</title>
<path fill="none" stroke="black" d="M35.44,-48.6C35.44,-48.6 43.59,-48.6 43.59,-48.6"/>
<polygon fill="black" stroke="black" points="43.59,-50.35 48.59,-48.6 43.59,-46.85 43.59,-50.35"/>
</g>
</g>
</svg>
