<?xml version="1.0" encoding="UTF-8" standalone="no"?>
<!DOCTYPE svg PUBLIC "-//W3C//DTD SVG 1.1//EN"
 "http://www.w3.org/Graphics/SVG/1.1/DTD/svg11.dtd">
<!-- Generated by graphviz version 9.0.0 (20230911.1827)
 -->
<!-- Title: inheritanceb81cc7956e Pages: 1 -->
<svg width="828pt" height="287pt"
 viewBox="0.00 0.00 828.10 287.20" xmlns="http://www.w3.org/2000/svg" xmlns:xlink="http://www.w3.org/1999/xlink">
<g id="graph0" class="graph" transform="scale(1 1) rotate(0) translate(4 283.2)">
<title>inheritanceb81cc7956e</title>
<!-- Action -->
<g id="node1" class="node">
<title>Action</title>
<g id="a_node1"><a xlink:title="TAction is the base class for VCL action objects. TAction implements actions to be used with menu items and controls. The published properties and events of TAction actions can be managed in the Object Inspector at design time.">
<polygon fill="white" stroke="black" stroke-width="0" points="657.53,-253.2 622.58,-253.2 622.58,-234 657.53,-234 657.53,-253.2"/>
<text text-anchor="middle" x="640.05" y="-240.1" font-family="Vera Sans, DejaVu Sans, Liberation Sans, Arial, Helvetica, sans" font-size="10.00">Action</text>
</a>
</g>
</g>
<!-- CustomAction -->
<g id="node2" class="node">
<title>CustomAction</title>
<g id="a_node2"><a xlink:title="TCustomAction is the base class for VCL actions intended to be used with menu items and controls.">
<polygon fill="white" stroke="black" stroke-width="0" points="539.58,-253.2 470.88,-253.2 470.88,-234 539.58,-234 539.58,-253.2"/>
<text text-anchor="middle" x="505.23" y="-240.1" font-family="Vera Sans, DejaVu Sans, Liberation Sans, Arial, Helvetica, sans" font-size="10.00">CustomAction</text>
</a>
</g>
</g>
<!-- CustomAction&#45;&gt;Action -->
<g id="edge1" class="edge">
<title>CustomAction&#45;&gt;Action</title>
<path fill="none" stroke="black" d="M539.25,-243.6C539.25,-243.6 616.4,-243.6 616.4,-243.6"/>
<polygon fill="black" stroke="black" points="616.4,-245.35 621.4,-243.6 616.4,-241.85 616.4,-245.35"/>
</g>
<!-- ActionList -->
<g id="node3" class="node">
<title>ActionList</title>
<g id="a_node3"><a xlink:title="TActionList maintains a list of actions that can be used by components and controls such as menu items and buttons.">
<polygon fill="white" stroke="black" stroke-width="0" points="530.58,-123.2 479.88,-123.2 479.88,-104 530.58,-104 530.58,-123.2"/>
<text text-anchor="middle" x="505.23" y="-110.1" font-family="Vera Sans, DejaVu Sans, Liberation Sans, Arial, Helvetica, sans" font-size="10.00">ActionList</text>
</a>
</g>
</g>
<!-- CustomActionList -->
<g id="node4" class="node">
<title>CustomActionList</title>
<g id="a_node4"><a xlink:title="The usual list of actions (without published properties) in VCL">
<polygon fill="white" stroke="black" stroke-width="0" points="423.88,-123.2 339.43,-123.2 339.43,-104 423.88,-104 423.88,-123.2"/>
<text text-anchor="middle" x="381.65" y="-110.1" font-family="Vera Sans, DejaVu Sans, Liberation Sans, Arial, Helvetica, sans" font-size="10.00">CustomActionList</text>
</a>
</g>
</g>
<!-- CustomActionList&#45;&gt;ActionList -->
<g id="edge2" class="edge">
<title>CustomActionList&#45;&gt;ActionList</title>
<path fill="none" stroke="black" d="M423.83,-113.6C423.83,-113.6 473.64,-113.6 473.64,-113.6"/>
<polygon fill="black" stroke="black" points="473.64,-115.35 478.64,-113.6 473.64,-111.85 473.64,-115.35"/>
</g>
<!-- ActivityIndicator -->
<g id="node5" class="node">
<title>ActivityIndicator</title>
<g id="a_node5"><a xlink:title="An animated rotating display indicating that the application is performing some activity.">
<polygon fill="white" stroke="black" stroke-width="0" points="808.1,-201.2 732.65,-201.2 732.65,-182 808.1,-182 808.1,-201.2"/>
<text text-anchor="middle" x="770.38" y="-188.1" font-family="Vera Sans, DejaVu Sans, Liberation Sans, Arial, Helvetica, sans" font-size="10.00">ActivityIndicator</text>
</a>
</g>
</g>
<!-- CustomActivityIndicator -->
<g id="node6" class="node">
<title>CustomActivityIndicator</title>
<g id="a_node6"><a xlink:title="The base class for TActivityIndicator.">
<polygon fill="white" stroke="black" stroke-width="0" points="694.65,-201.2 585.45,-201.2 585.45,-182 694.65,-182 694.65,-201.2"/>
<text text-anchor="middle" x="640.05" y="-188.1" font-family="Vera Sans, DejaVu Sans, Liberation Sans, Arial, Helvetica, sans" font-size="10.00">CustomActivityIndicator</text>
</a>
</g>
</g>
<!-- CustomActivityIndicator&#45;&gt;ActivityIndicator -->
<g id="edge3" class="edge">
<title>CustomActivityIndicator&#45;&gt;ActivityIndicator</title>
<path fill="none" stroke="black" d="M694.56,-191.6C694.56,-191.6 726.19,-191.6 726.19,-191.6"/>
<polygon fill="black" stroke="black" points="726.19,-193.35 731.19,-191.6 726.19,-189.85 726.19,-193.35"/>
</g>
<!-- BaseBindScopeComponent -->
<g id="node7" class="node">
<title>BaseBindScopeComponent</title>
<g id="a_node7"><a xlink:title="Base class for the binding scope component. TBaseBindScopeComponent is the ancestor for the TCustomBindScope component. TBaseBindScopeComponent provides functionality for adding scope mappings, getting scope members and values, returning the scope itself or the scope of a member. It also provides properties for accessing the binding expressions in this scope and the scope mappings.">
<polygon fill="white" stroke="black" stroke-width="0" points="312.3,-279.2 185.85,-279.2 185.85,-260 312.3,-260 312.3,-279.2"/>
<text text-anchor="middle" x="249.08" y="-266.1" font-family="Vera Sans, DejaVu Sans, Liberation Sans, Arial, Helvetica, sans" font-size="10.00">BaseBindScopeComponent</text>
</a>
</g>
</g>
<!-- BaseLinkingBindSource -->
<g id="node9" class="node">
<title>BaseLinkingBindSource</title>
<g id="a_node9"><a xlink:title="Base class for scope with supports linking">
<polygon fill="white" stroke="black" stroke-width="0" points="437,-279.2 326.3,-279.2 326.3,-260 437,-260 437,-279.2"/>
<text text-anchor="middle" x="381.65" y="-266.1" font-family="Vera Sans, DejaVu Sans, Liberation Sans, Arial, Helvetica, sans" font-size="10.00">BaseLinkingBindSource</text>
</a>
</g>
</g>
<!-- BaseBindScopeComponent&#45;&gt;BaseLinkingBindSource -->
<g id="edge5" class="edge">
<title>BaseBindScopeComponent&#45;&gt;BaseLinkingBindSource</title>
<path fill="none" stroke="black" d="M312.26,-269.6C312.26,-269.6 320.11,-269.6 320.11,-269.6"/>
<polygon fill="black" stroke="black" points="320.11,-271.35 325.11,-269.6 320.11,-267.85 320.11,-271.35"/>
</g>
<!-- Component -->
<g id="node8" class="node">
<title>Component</title>
<g id="a_node8"><a xlink:title="TComponent is the common ancestor of all component classes.">
<polygon fill="white" stroke="black" stroke-width="0" points="171.85,-149.2 115.15,-149.2 115.15,-130 171.85,-130 171.85,-149.2"/>
<text text-anchor="middle" x="143.5" y="-136.1" font-family="Vera Sans, DejaVu Sans, Liberation Sans, Arial, Helvetica, sans" font-size="10.00">Component</text>
</a>
</g>
</g>
<!-- Component&#45;&gt;BaseBindScopeComponent -->
<g id="edge4" class="edge">
<title>Component&#45;&gt;BaseBindScopeComponent</title>
<path fill="none" stroke="black" d="M171.78,-142.8C182.92,-142.8 193.1,-142.8 193.1,-142.8 193.1,-142.8 193.1,-253.56 193.1,-253.56"/>
<polygon fill="black" stroke="black" points="191.35,-253.56 193.1,-258.56 194.85,-253.56 191.35,-253.56"/>
</g>
<!-- BasicAction -->
<g id="node11" class="node">
<title>BasicAction</title>
<g id="a_node11"><a xlink:title="TBasicAction is the ancestor class for all action objects.">
<polygon fill="white" stroke="black" stroke-width="0" points="278.93,-253.2 219.23,-253.2 219.23,-234 278.93,-234 278.93,-253.2"/>
<text text-anchor="middle" x="249.08" y="-240.1" font-family="Vera Sans, DejaVu Sans, Liberation Sans, Arial, Helvetica, sans" font-size="10.00">BasicAction</text>
</a>
</g>
</g>
<!-- Component&#45;&gt;BasicAction -->
<g id="edge7" class="edge">
<title>Component&#45;&gt;BasicAction</title>
<path fill="none" stroke="black" d="M127.1,-149.2C127.1,-174.94 127.1,-243.6 127.1,-243.6 127.1,-243.6 212.72,-243.6 212.72,-243.6"/>
<polygon fill="black" stroke="black" points="212.72,-245.35 217.72,-243.6 212.72,-241.85 212.72,-245.35"/>
</g>
<!-- BasicBindComponent -->
<g id="node12" class="node">
<title>BasicBindComponent</title>
<g id="a_node12"><a xlink:title="Wrapper for Delphi TBasicBindComponent">
<polygon fill="white" stroke="black" stroke-width="0" points="299.55,-227.2 198.6,-227.2 198.6,-208 299.55,-208 299.55,-227.2"/>
<text text-anchor="middle" x="249.08" y="-214.1" font-family="Vera Sans, DejaVu Sans, Liberation Sans, Arial, Helvetica, sans" font-size="10.00">BasicBindComponent</text>
</a>
</g>
</g>
<!-- Component&#45;&gt;BasicBindComponent -->
<g id="edge8" class="edge">
<title>Component&#45;&gt;BasicBindComponent</title>
<path fill="none" stroke="black" d="M138.1,-149.16C138.1,-169.99 138.1,-217.6 138.1,-217.6 138.1,-217.6 192.27,-217.6 192.27,-217.6"/>
<polygon fill="black" stroke="black" points="192.27,-219.35 197.27,-217.6 192.27,-215.85 192.27,-219.35"/>
</g>
<!-- CustomBindingsList -->
<g id="node14" class="node">
<title>CustomBindingsList</title>
<g id="a_node14"><a xlink:title="Represents the base class for the binding list.">
<polygon fill="white" stroke="black" stroke-width="0" points="296.18,-201.2 201.98,-201.2 201.98,-182 296.18,-182 296.18,-201.2"/>
<text text-anchor="middle" x="249.08" y="-188.1" font-family="Vera Sans, DejaVu Sans, Liberation Sans, Arial, Helvetica, sans" font-size="10.00">CustomBindingsList</text>
</a>
</g>
</g>
<!-- Component&#45;&gt;CustomBindingsList -->
<g id="edge18" class="edge">
<title>Component&#45;&gt;CustomBindingsList</title>
<path fill="none" stroke="black" d="M150.1,-149.14C150.1,-164.15 150.1,-191.6 150.1,-191.6 150.1,-191.6 195.68,-191.6 195.68,-191.6"/>
<polygon fill="black" stroke="black" points="195.68,-193.35 200.68,-191.6 195.68,-189.85 195.68,-193.35"/>
</g>
<!-- Control -->
<g id="node16" class="node">
<title>Control</title>
<g id="a_node16"><a xlink:title="TControl is the base class for all components that are visible at run time.">
<polygon fill="white" stroke="black" stroke-width="0" points="268.05,-175.2 230.1,-175.2 230.1,-156 268.05,-156 268.05,-175.2"/>
<text text-anchor="middle" x="249.08" y="-162.1" font-family="Vera Sans, DejaVu Sans, Liberation Sans, Arial, Helvetica, sans" font-size="10.00">Control</text>
</a>
</g>
</g>
<!-- Component&#45;&gt;Control -->
<g id="edge14" class="edge">
<title>Component&#45;&gt;Control</title>
<path fill="none" stroke="black" d="M161.1,-148.99C161.1,-156.43 161.1,-165.6 161.1,-165.6 161.1,-165.6 223.9,-165.6 223.9,-165.6"/>
<polygon fill="black" stroke="black" points="223.9,-167.35 228.9,-165.6 223.9,-163.85 223.9,-167.35"/>
</g>
<!-- ContainedActionList -->
<g id="node19" class="node">
<title>ContainedActionList</title>
<g id="a_node19"><a xlink:title="The base class for list of actions, without the published properties.">
<polygon fill="white" stroke="black" stroke-width="0" points="296.18,-149.2 201.98,-149.2 201.98,-130 296.18,-130 296.18,-149.2"/>
<text text-anchor="middle" x="249.08" y="-136.1" font-family="Vera Sans, DejaVu Sans, Liberation Sans, Arial, Helvetica, sans" font-size="10.00">ContainedActionList</text>
</a>
</g>
</g>
<!-- Component&#45;&gt;ContainedActionList -->
<g id="edge13" class="edge">
<title>Component&#45;&gt;ContainedActionList</title>
<path fill="none" stroke="black" d="M171.79,-136.4C171.79,-136.4 195.84,-136.4 195.84,-136.4"/>
<polygon fill="black" stroke="black" points="195.84,-138.15 200.84,-136.4 195.84,-134.65 195.84,-138.15"/>
</g>
<!-- FileOpenDialog -->
<g id="node24" class="node">
<title>FileOpenDialog</title>
<g id="a_node24"><a xlink:title="Class for Vista and newer Windows operating systems style file open dialogs.">
<polygon fill="white" stroke="black" stroke-width="0" points="285.68,-123.2 212.48,-123.2 212.48,-104 285.68,-104 285.68,-123.2"/>
<text text-anchor="middle" x="249.08" y="-110.1" font-family="Vera Sans, DejaVu Sans, Liberation Sans, Arial, Helvetica, sans" font-size="10.00">FileOpenDialog</text>
</a>
</g>
</g>
<!-- Component&#45;&gt;FileOpenDialog -->
<g id="edge22" class="edge">
<title>Component&#45;&gt;FileOpenDialog</title>
<path fill="none" stroke="black" d="M163.1,-130.21C163.1,-122.77 163.1,-113.6 163.1,-113.6 163.1,-113.6 206.1,-113.6 206.1,-113.6"/>
<polygon fill="black" stroke="black" points="206.1,-115.35 211.1,-113.6 206.1,-111.85 206.1,-115.35"/>
</g>
<!-- Menu -->
<g id="node27" class="node">
<title>Menu</title>
<g id="a_node27"><a xlink:title="TMenu is the base type for menu components such as TMainMenu and TPopupMenu.">
<polygon fill="white" stroke="black" stroke-width="0" points="264.68,-97.2 233.48,-97.2 233.48,-78 264.68,-78 264.68,-97.2"/>
<text text-anchor="middle" x="249.08" y="-84.1" font-family="Vera Sans, DejaVu Sans, Liberation Sans, Arial, Helvetica, sans" font-size="10.00">Menu</text>
</a>
</g>
</g>
<!-- Component&#45;&gt;Menu -->
<g id="edge26" class="edge">
<title>Component&#45;&gt;Menu</title>
<path fill="none" stroke="black" d="M153.1,-130.06C153.1,-115.05 153.1,-87.6 153.1,-87.6 153.1,-87.6 227.14,-87.6 227.14,-87.6"/>
<polygon fill="black" stroke="black" points="227.14,-89.35 232.14,-87.6 227.14,-85.85 227.14,-89.35"/>
</g>
<!-- MenuItem -->
<g id="node29" class="node">
<title>MenuItem</title>
<g id="a_node29"><a xlink:title="TMenuItem describes the properties of an item in a menu.">
<polygon fill="white" stroke="black" stroke-width="0" points="274.05,-71.2 224.1,-71.2 224.1,-52 274.05,-52 274.05,-71.2"/>
<text text-anchor="middle" x="249.08" y="-58.1" font-family="Vera Sans, DejaVu Sans, Liberation Sans, Arial, Helvetica, sans" font-size="10.00">MenuItem</text>
</a>
</g>
</g>
<!-- Component&#45;&gt;MenuItem -->
<g id="edge27" class="edge">
<title>Component&#45;&gt;MenuItem</title>
<path fill="none" stroke="black" d="M144.1,-130.04C144.1,-109.21 144.1,-61.6 144.1,-61.6 144.1,-61.6 217.68,-61.6 217.68,-61.6"/>
<polygon fill="black" stroke="black" points="217.68,-63.35 222.68,-61.6 217.68,-59.85 217.68,-63.35"/>
</g>
<!-- OpenDialog -->
<g id="node31" class="node">
<title>OpenDialog</title>
<g id="a_node31"><a xlink:title="TOpenDialog displays a file&#45;selection dialog.">
<polygon fill="white" stroke="black" stroke-width="0" points="277.8,-45.2 220.35,-45.2 220.35,-26 277.8,-26 277.8,-45.2"/>
<text text-anchor="middle" x="249.08" y="-32.1" font-family="Vera Sans, DejaVu Sans, Liberation Sans, Arial, Helvetica, sans" font-size="10.00">OpenDialog</text>
</a>
</g>
</g>
<!-- Component&#45;&gt;OpenDialog -->
<g id="edge28" class="edge">
<title>Component&#45;&gt;OpenDialog</title>
<path fill="none" stroke="black" d="M134.1,-130C134.1,-104.26 134.1,-35.6 134.1,-35.6 134.1,-35.6 213.84,-35.6 213.84,-35.6"/>
<polygon fill="black" stroke="black" points="213.85,-37.35 218.84,-35.6 213.84,-33.85 213.85,-37.35"/>
</g>
<!-- Timer -->
<g id="node35" class="node">
<title>Timer</title>
<g id="a_node35"><a xlink:title="TTimer encapsulates the Windows API timer functions.">
<polygon fill="white" stroke="black" stroke-width="0" points="264.68,-19.2 233.48,-19.2 233.48,0 264.68,0 264.68,-19.2"/>
<text text-anchor="middle" x="249.08" y="-6.1" font-family="Vera Sans, DejaVu Sans, Liberation Sans, Arial, Helvetica, sans" font-size="10.00">Timer</text>
</a>
</g>
</g>
<!-- Component&#45;&gt;Timer -->
<g id="edge33" class="edge">
<title>Component&#45;&gt;Timer</title>
<path fill="none" stroke="black" d="M125.1,-130.25C125.1,-100.44 125.1,-9.6 125.1,-9.6 125.1,-9.6 227.11,-9.6 227.11,-9.6"/>
<polygon fill="black" stroke="black" points="227.11,-11.35 232.11,-9.6 227.11,-7.85 227.11,-11.35"/>
</g>
<!-- BaseObjectBindSource -->
<g id="node10" class="node">
<title>BaseObjectBindSource</title>
<g id="a_node10"><a xlink:title="Is a bind source that supports adapters to connect to different types of data.">
<polygon fill="white" stroke="black" stroke-width="0" points="559.45,-279.2 451,-279.2 451,-260 559.45,-260 559.45,-279.2"/>
<text text-anchor="middle" x="505.23" y="-266.1" font-family="Vera Sans, DejaVu Sans, Liberation Sans, Arial, Helvetica, sans" font-size="10.00">BaseObjectBindSource</text>
</a>
</g>
</g>
<!-- BaseLinkingBindSource&#45;&gt;BaseObjectBindSource -->
<g id="edge6" class="edge">
<title>BaseLinkingBindSource&#45;&gt;BaseObjectBindSource</title>
<path fill="none" stroke="black" d="M436.93,-269.6C436.93,-269.6 444.73,-269.6 444.73,-269.6"/>
<polygon fill="black" stroke="black" points="444.73,-271.35 449.73,-269.6 444.73,-267.85 444.73,-271.35"/>
</g>
<!-- CustomPrototypeBindSource -->
<g id="node22" class="node">
<title>CustomPrototypeBindSource</title>
<g id="a_node22"><a xlink:title="Is a base class that implements a bind source for creating sample data.">
<polygon fill="white" stroke="black" stroke-width="0" points="706.65,-279.2 573.45,-279.2 573.45,-260 706.65,-260 706.65,-279.2"/>
<text text-anchor="middle" x="640.05" y="-266.1" font-family="Vera Sans, DejaVu Sans, Liberation Sans, Arial, Helvetica, sans" font-size="10.00">CustomPrototypeBindSource</text>
</a>
</g>
</g>
<!-- BaseObjectBindSource&#45;&gt;CustomPrototypeBindSource -->
<g id="edge20" class="edge">
<title>BaseObjectBindSource&#45;&gt;CustomPrototypeBindSource</title>
<path fill="none" stroke="black" d="M559.29,-269.6C559.29,-269.6 567.01,-269.6 567.01,-269.6"/>
<polygon fill="black" stroke="black" points="567.01,-271.35 572.01,-269.6 567.01,-267.85 567.01,-271.35"/>
</g>
<!-- ContainedAction -->
<g id="node18" class="node">
<title>ContainedAction</title>
<g id="a_node18"><a xlink:title="TContainedAction is the base class for actions that can be grouped by category and that can appear in action lists.">
<polygon fill="white" stroke="black" stroke-width="0" points="420.88,-253.2 342.43,-253.2 342.43,-234 420.88,-234 420.88,-253.2"/>
<text text-anchor="middle" x="381.65" y="-240.1" font-family="Vera Sans, DejaVu Sans, Liberation Sans, Arial, Helvetica, sans" font-size="10.00">ContainedAction</text>
</a>
</g>
</g>
<!-- BasicAction&#45;&gt;ContainedAction -->
<g id="edge12" class="edge">
<title>BasicAction&#45;&gt;ContainedAction</title>
<path fill="none" stroke="black" d="M278.83,-243.6C278.83,-243.6 335.92,-243.6 335.92,-243.6"/>
<polygon fill="black" stroke="black" points="335.92,-245.35 340.92,-243.6 335.92,-241.85 335.92,-245.35"/>
</g>
<!-- BindingsList -->
<g id="node13" class="node">
<title>BindingsList</title>
<g id="a_node13"><a xlink:title="Implements the bindings list component. TBindingsList is built on the TCustomBindingsList component and publishes additional properties that can be accessed from within the Object Inspector.">
<polygon fill="white" stroke="black" stroke-width="0" points="411.88,-227.2 351.43,-227.2 351.43,-208 411.88,-208 411.88,-227.2"/>
<text text-anchor="middle" x="381.65" y="-214.1" font-family="Vera Sans, DejaVu Sans, Liberation Sans, Arial, Helvetica, sans" font-size="10.00">BindingsList</text>
</a>
</g>
</g>
<!-- CustomBindingsList&#45;&gt;BindingsList -->
<g id="edge9" class="edge">
<title>CustomBindingsList&#45;&gt;BindingsList</title>
<path fill="none" stroke="black" d="M296.17,-194.8C302.08,-194.8 306.1,-194.8 306.1,-194.8 306.1,-194.8 306.1,-217.6 306.1,-217.6 306.1,-217.6 345.28,-217.6 345.28,-217.6"/>
<polygon fill="black" stroke="black" points="345.28,-219.35 350.28,-217.6 345.28,-215.85 345.28,-219.35"/>
</g>
<!-- BoundLabel -->
<g id="node15" class="node">
<title>BoundLabel</title>
<g id="a_node15"><a xlink:title="TBoundLabel is the type of a labeled edit control&#39;s label.">
<polygon fill="white" stroke="black" stroke-width="0" points="410.75,-201.2 352.55,-201.2 352.55,-182 410.75,-182 410.75,-201.2"/>
<text text-anchor="middle" x="381.65" y="-188.1" font-family="Vera Sans, DejaVu Sans, Liberation Sans, Arial, Helvetica, sans" font-size="10.00">BoundLabel</text>
</a>
</g>
</g>
<!-- Control&#45;&gt;BoundLabel -->
<g id="edge10" class="edge">
<title>Control&#45;&gt;BoundLabel</title>
<path fill="none" stroke="black" d="M268.05,-170.4C285.96,-170.4 310.1,-170.4 310.1,-170.4 310.1,-170.4 310.1,-188.4 310.1,-188.4 310.1,-188.4 346.45,-188.4 346.45,-188.4"/>
<polygon fill="black" stroke="black" points="346.45,-190.15 351.45,-188.4 346.45,-186.65 346.45,-190.15"/>
</g>
<!-- WinControl -->
<g id="node21" class="node">
<title>WinControl</title>
<g id="a_node21"><a xlink:title="TWinControl is the base class for all controls that are wrappers for Microsoft Windows screen objects.">
<polygon fill="white" stroke="black" stroke-width="0" points="409.25,-175.2 354.05,-175.2 354.05,-156 409.25,-156 409.25,-175.2"/>
<text text-anchor="middle" x="381.65" y="-162.1" font-family="Vera Sans, DejaVu Sans, Liberation Sans, Arial, Helvetica, sans" font-size="10.00">WinControl</text>
</a>
</g>
</g>
<!-- Control&#45;&gt;WinControl -->
<g id="edge35" class="edge">
<title>Control&#45;&gt;WinControl</title>
<path fill="none" stroke="black" d="M267.79,-165.6C267.79,-165.6 347.77,-165.6 347.77,-165.6"/>
<polygon fill="black" stroke="black" points="347.77,-167.35 352.77,-165.6 347.77,-163.85 347.77,-167.35"/>
</g>
<!-- Label -->
<g id="node25" class="node">
<title>Label</title>
<g id="a_node25"><a xlink:title="TLabel is a nonwindowed control that displays text on a form.">
<polygon fill="white" stroke="black" stroke-width="0" points="396.88,-149.2 366.43,-149.2 366.43,-130 396.88,-130 396.88,-149.2"/>
<text text-anchor="middle" x="381.65" y="-136.1" font-family="Vera Sans, DejaVu Sans, Liberation Sans, Arial, Helvetica, sans" font-size="10.00">Label</text>
</a>
</g>
</g>
<!-- Control&#45;&gt;Label -->
<g id="edge23" class="edge">
<title>Control&#45;&gt;Label</title>
<path fill="none" stroke="black" d="M267.97,-160.8C283.55,-160.8 303.1,-160.8 303.1,-160.8 303.1,-160.8 303.1,-139.6 303.1,-139.6 303.1,-139.6 359.99,-139.6 359.99,-139.6"/>
<polygon fill="black" stroke="black" points="359.99,-141.35 364.99,-139.6 359.99,-137.85 359.99,-141.35"/>
</g>
<!-- Persistent -->
<g id="node17" class="node">
<title>Persistent</title>
<g id="a_node17"><a xlink:title="TPersistent is the ancestor for all objects that have assignment and streaming capabilities.">
<polygon fill="white" stroke="black" stroke-width="0" points="101.15,-149.2 49.7,-149.2 49.7,-130 101.15,-130 101.15,-149.2"/>
<text text-anchor="middle" x="75.43" y="-136.1" font-family="Vera Sans, DejaVu Sans, Liberation Sans, Arial, Helvetica, sans" font-size="10.00">Persistent</text>
</a>
</g>
</g>
<!-- Persistent&#45;&gt;Component -->
<g id="edge11" class="edge">
<title>Persistent&#45;&gt;Component</title>
<path fill="none" stroke="black" d="M100.77,-139.6C100.77,-139.6 108.64,-139.6 108.64,-139.6"/>
<polygon fill="black" stroke="black" points="108.64,-141.35 113.64,-139.6 108.64,-137.85 108.64,-141.35"/>
</g>
<!-- ContainedAction&#45;&gt;CustomAction -->
<g id="edge15" class="edge">
<title>ContainedAction&#45;&gt;CustomAction</title>
<path fill="none" stroke="black" d="M420.75,-243.6C420.75,-243.6 464.45,-243.6 464.45,-243.6"/>
<polygon fill="black" stroke="black" points="464.45,-245.35 469.45,-243.6 464.45,-241.85 464.45,-245.35"/>
</g>
<!-- ContainedActionList&#45;&gt;CustomActionList -->
<g id="edge16" class="edge">
<title>ContainedActionList&#45;&gt;CustomActionList</title>
<path fill="none" stroke="black" d="M293.1,-130.21C293.1,-122.77 293.1,-113.6 293.1,-113.6 293.1,-113.6 332.94,-113.6 332.94,-113.6"/>
<polygon fill="black" stroke="black" points="332.94,-115.35 337.94,-113.6 332.94,-111.85 332.94,-115.35"/>
</g>
<!-- CustomControl -->
<g id="node20" class="node">
<title>CustomControl</title>
<g id="a_node20"><a xlink:title="Base class for controls that wrap Windows screen objects but perform their own rendering.">
<polygon fill="white" stroke="black" stroke-width="0" points="541.08,-175.2 469.38,-175.2 469.38,-156 541.08,-156 541.08,-175.2"/>
<text text-anchor="middle" x="505.23" y="-162.1" font-family="Vera Sans, DejaVu Sans, Liberation Sans, Arial, Helvetica, sans" font-size="10.00">CustomControl</text>
</a>
</g>
</g>
<!-- CustomControl&#45;&gt;CustomActivityIndicator -->
<g id="edge17" class="edge">
<title>CustomControl&#45;&gt;CustomActivityIndicator</title>
<path fill="none" stroke="black" d="M506.1,-174.99C506.1,-182.43 506.1,-191.6 506.1,-191.6 506.1,-191.6 579.05,-191.6 579.05,-191.6"/>
<polygon fill="black" stroke="black" points="579.05,-193.35 584.05,-191.6 579.05,-189.85 579.05,-193.35"/>
</g>
<!-- CustomToggleSwitch -->
<g id="node23" class="node">
<title>CustomToggleSwitch</title>
<g id="a_node23"><a xlink:title="The base class for TToggleSwitch.">
<polygon fill="white" stroke="black" stroke-width="0" points="689.4,-175.2 590.7,-175.2 590.7,-156 689.4,-156 689.4,-175.2"/>
<text text-anchor="middle" x="640.05" y="-162.1" font-family="Vera Sans, DejaVu Sans, Liberation Sans, Arial, Helvetica, sans" font-size="10.00">CustomToggleSwitch</text>
</a>
</g>
</g>
<!-- CustomControl&#45;&gt;CustomToggleSwitch -->
<g id="edge21" class="edge">
<title>CustomControl&#45;&gt;CustomToggleSwitch</title>
<path fill="none" stroke="black" d="M541,-165.6C541,-165.6 584.39,-165.6 584.39,-165.6"/>
<polygon fill="black" stroke="black" points="584.39,-167.35 589.39,-165.6 584.39,-163.85 584.39,-167.35"/>
</g>
<!-- MediaPlayer -->
<g id="node28" class="node">
<title>MediaPlayer</title>
<g id="a_node28"><a xlink:title="TMediaPlayer controls devices that provide a Media Control Interface (MCI) driver.">
<polygon fill="white" stroke="black" stroke-width="0" points="670.65,-149.2 609.45,-149.2 609.45,-130 670.65,-130 670.65,-149.2"/>
<text text-anchor="middle" x="640.05" y="-136.1" font-family="Vera Sans, DejaVu Sans, Liberation Sans, Arial, Helvetica, sans" font-size="10.00">MediaPlayer</text>
</a>
</g>
</g>
<!-- CustomControl&#45;&gt;MediaPlayer -->
<g id="edge25" class="edge">
<title>CustomControl&#45;&gt;MediaPlayer</title>
<path fill="none" stroke="black" d="M536.1,-156.21C536.1,-148.77 536.1,-139.6 536.1,-139.6 536.1,-139.6 603.19,-139.6 603.19,-139.6"/>
<polygon fill="black" stroke="black" points="603.19,-141.35 608.19,-139.6 603.19,-137.85 603.19,-141.35"/>
</g>
<!-- WinControl&#45;&gt;CustomControl -->
<g id="edge19" class="edge">
<title>WinControl&#45;&gt;CustomControl</title>
<path fill="none" stroke="black" d="M409.08,-165.6C409.08,-165.6 462.91,-165.6 462.91,-165.6"/>
<polygon fill="black" stroke="black" points="462.91,-167.35 467.91,-165.6 462.91,-163.85 462.91,-167.35"/>
</g>
<!-- PrototypeBindSource -->
<g id="node33" class="node">
<title>PrototypeBindSource</title>
<g id="a_node33"><a xlink:title="Is a bind source for creating sample data.">
<polygon fill="white" stroke="black" stroke-width="0" points="820.1,-279.2 720.65,-279.2 720.65,-260 820.1,-260 820.1,-279.2"/>
<text text-anchor="middle" x="770.38" y="-266.1" font-family="Vera Sans, DejaVu Sans, Liberation Sans, Arial, Helvetica, sans" font-size="10.00">PrototypeBindSource</text>
</a>
</g>
</g>
<!-- CustomPrototypeBindSource&#45;&gt;PrototypeBindSource -->
<g id="edge31" class="edge">
<title>CustomPrototypeBindSource&#45;&gt;PrototypeBindSource</title>
<path fill="none" stroke="black" d="M706.36,-269.6C706.36,-269.6 714.42,-269.6 714.42,-269.6"/>
<polygon fill="black" stroke="black" points="714.42,-271.35 719.42,-269.6 714.42,-267.85 714.42,-271.35"/>
</g>
<!-- ToggleSwitch -->
<g id="node36" class="node">
<title>ToggleSwitch</title>
<g id="a_node36"><a xlink:title="A clickable control that allows a user to toggle between an On state and an Off state.">
<polygon fill="white" stroke="black" stroke-width="0" points="802.85,-175.2 737.9,-175.2 737.9,-156 802.85,-156 802.85,-175.2"/>
<text text-anchor="middle" x="770.38" y="-162.1" font-family="Vera Sans, DejaVu Sans, Liberation Sans, Arial, Helvetica, sans" font-size="10.00">ToggleSwitch</text>
</a>
</g>
</g>
<!-- CustomToggleSwitch&#45;&gt;ToggleSwitch -->
<g id="edge34" class="edge">
<title>CustomToggleSwitch&#45;&gt;ToggleSwitch</title>
<path fill="none" stroke="black" d="M689.32,-165.6C689.32,-165.6 731.49,-165.6 731.49,-165.6"/>
<polygon fill="black" stroke="black" points="731.49,-167.35 736.49,-165.6 731.49,-163.85 731.49,-167.35"/>
</g>
<!-- MainMenu -->
<g id="node26" class="node">
<title>MainMenu</title>
<g id="a_node26"><a xlink:title="TMainMenu encapsulates a menu bar and its accompanying drop&#45;down menus for a form.">
<polygon fill="white" stroke="black" stroke-width="0" points="407.75,-97.2 355.55,-97.2 355.55,-78 407.75,-78 407.75,-97.2"/>
<text text-anchor="middle" x="381.65" y="-84.1" font-family="Vera Sans, DejaVu Sans, Liberation Sans, Arial, Helvetica, sans" font-size="10.00">MainMenu</text>
</a>
</g>
</g>
<!-- Menu&#45;&gt;MainMenu -->
<g id="edge24" class="edge">
<title>Menu&#45;&gt;MainMenu</title>
<path fill="none" stroke="black" d="M264.54,-90.8C264.54,-90.8 349.07,-90.8 349.07,-90.8"/>
<polygon fill="black" stroke="black" points="349.07,-92.55 354.07,-90.8 349.07,-89.05 349.07,-92.55"/>
</g>
<!-- PopupMenu -->
<g id="node32" class="node">
<title>PopupMenu</title>
<g id="a_node32"><a xlink:title="TPopupMenu encapsulates the properties, methods, and events of a pop&#45;up menu.">
<polygon fill="white" stroke="black" stroke-width="0" points="411.13,-71.2 352.18,-71.2 352.18,-52 411.13,-52 411.13,-71.2"/>
<text text-anchor="middle" x="381.65" y="-58.1" font-family="Vera Sans, DejaVu Sans, Liberation Sans, Arial, Helvetica, sans" font-size="10.00">PopupMenu</text>
</a>
</g>
</g>
<!-- Menu&#45;&gt;PopupMenu -->
<g id="edge30" class="edge">
<title>Menu&#45;&gt;PopupMenu</title>
<path fill="none" stroke="black" d="M264.35,-84.4C276.02,-84.4 290.1,-84.4 290.1,-84.4 290.1,-84.4 290.1,-61.6 290.1,-61.6 290.1,-61.6 345.67,-61.6 345.67,-61.6"/>
<polygon fill="black" stroke="black" points="345.67,-63.35 350.67,-61.6 345.67,-59.85 345.67,-63.35"/>
</g>
<!-- Object -->
<g id="node30" class="node">
<title>Object</title>
<g id="a_node30"><a xlink:title="TObject is the ultimate ancestor of all objects and components.">
<polygon fill="white" stroke="black" stroke-width="0" points="35.7,-149.2 0,-149.2 0,-130 35.7,-130 35.7,-149.2"/>
<text text-anchor="middle" x="17.85" y="-136.1" font-family="Vera Sans, DejaVu Sans, Liberation Sans, Arial, Helvetica, sans" font-size="10.00">Object</text>
</a>
</g>
</g>
<!-- Object&#45;&gt;Persistent -->
<g id="edge29" class="edge">
<title>Object&#45;&gt;Persistent</title>
<path fill="none" stroke="black" d="M35.44,-139.6C35.44,-139.6 43.59,-139.6 43.59,-139.6"/>
<polygon fill="black" stroke="black" points="43.59,-141.35 48.59,-139.6 43.59,-137.85 43.59,-141.35"/>
</g>
<!-- SaveDialog -->
<g id="node34" class="node">
<title>SaveDialog</title>
<g id="a_node34"><a xlink:title="TSaveDialog displays a &quot;Save As&quot; dialog for saving files.">
<polygon fill="white" stroke="black" stroke-width="0" points="409.25,-45.2 354.05,-45.2 354.05,-26 409.25,-26 409.25,-45.2"/>
<text text-anchor="middle" x="381.65" y="-32.1" font-family="Vera Sans, DejaVu Sans, Liberation Sans, Arial, Helvetica, sans" font-size="10.00">SaveDialog</text>
</a>
</g>
</g>
<!-- OpenDialog&#45;&gt;SaveDialog -->
<g id="edge32" class="edge">
<title>OpenDialog&#45;&gt;SaveDialog</title>
<path fill="none" stroke="black" d="M277.52,-35.6C277.52,-35.6 347.65,-35.6 347.65,-35.6"/>
<polygon fill="black" stroke="black" points="347.65,-37.35 352.65,-35.6 347.65,-33.85 347.65,-37.35"/>
</g>
</g>
</svg>
